<svg width="25" height="21" viewBox="0 0 25 21" fill="none" xmlns="http://www.w3.org/2000/svg">
<g clip-path="url(#clip0_1669_822)">
<path d="M23.5 9H1.5C0.671573 9 0 9.67157 0 10.5C0 11.3284 0.671573 12 1.5 12H23.5C24.3284 12 25 11.3284 25 10.5C25 9.67157 24.3284 9 23.5 9Z" fill="white"/>
<path d="M23.5 0H1.5C0.671573 0 0 0.671573 0 1.5C0 2.32843 0.671573 3 1.5 3H23.5C24.3284 3 25 2.32843 25 1.5C25 0.671573 24.3284 0 23.5 0Z" fill="white"/>
<path d="M23.5 18H1.5C0.671573 18 0 18.6716 0 19.5C0 20.3284 0.671573 21 1.5 21H23.5C24.3284 21 25 20.3284 25 19.5C25 18.6716 24.3284 18 23.5 18Z" fill="white"/>
</g>
<defs>
<clipPath id="clip0_1669_822">
<rect width="25" height="21" fill="white"/>
</clipPath>
</defs>
</svg>
