<svg width="65" height="77" viewBox="0 0 65 77" fill="none" xmlns="http://www.w3.org/2000/svg">
<path d="M63.9491 19.7543C63.9491 19.5838 63.8982 19.3962 63.8134 19.2428C63.8134 19.2257 63.8134 19.1916 63.7965 19.1746C63.6947 19.0041 63.542 18.8677 63.3724 18.7654C63.3724 18.7654 63.3554 18.7313 63.3385 18.7313L48.021 10.2407C47.8344 10.1384 47.6139 10.0873 47.4103 10.0873H43.2205V2.2787C43.2205 1.57968 42.6438 1 41.9483 1H23.0517C22.3562 1 21.7795 1.57968 21.7795 2.2787V10.0532H17.6066C17.3861 10.0532 17.1826 10.1043 16.996 10.2066L1.62763 18.6972C1.62763 18.6972 1.61066 18.7313 1.5937 18.7313C1.42407 18.8336 1.27141 18.9529 1.16963 19.1405C1.16963 19.1575 1.16963 19.1916 1.15267 19.2087C1.06785 19.3792 1.01696 19.5497 1.01696 19.7202C1.01696 19.7543 1 19.7713 1 19.7884V65.0714C1 65.5147 1.22052 65.9238 1.5937 66.1455L16.9281 75.8125C16.9281 75.8125 17.0129 75.8466 17.0468 75.8636C17.0808 75.8807 17.1317 75.8977 17.1656 75.9147C17.3013 75.9659 17.454 76 17.6066 76H47.4103C47.563 76 47.7157 75.9659 47.8514 75.9147C47.8853 75.9147 47.9362 75.8807 47.9701 75.8636C48.004 75.8466 48.0549 75.8295 48.0889 75.8125L63.4063 66.1455C63.7795 65.9068 64 65.4976 64 65.0714V19.8225C64 19.8225 63.983 19.7713 63.983 19.7543H63.9491ZM40.6422 3.5574V19.6008C35.8247 19.5838 29.3619 19.5667 24.29 19.5838V3.5574H40.6422ZM17.895 12.6106H21.7456V19.5838C19.9645 19.5838 18.4717 19.6008 17.5218 19.6349C16.8263 19.6349 16.2666 20.2316 16.2835 20.9477C16.2835 21.6467 16.8603 22.1923 17.5557 22.1923H17.5897C18.7092 22.1753 20.5412 22.1582 22.7633 22.1412C22.8481 22.1412 22.9499 22.1412 23.0347 22.1412C32.1607 22.1071 47.3934 22.1923 47.3934 22.1923V19.6349C47.3934 19.6349 45.748 19.6349 43.2036 19.6179V12.6106H47.0711L60.2003 19.8907L47.0372 28.1425H17.9289L4.74879 19.8907L17.895 12.6106ZM18.8449 30.6999H46.1042V73.5108H18.8449V30.6999ZM3.5105 22.1241L16.3005 30.1203V72.4537L3.5105 64.3894V22.1241ZM48.6486 72.4537V30.1203L61.4216 22.1241V64.3894L48.6486 72.4537Z" fill="#8393B5" stroke="#8393B5"/>
</svg>
