<svg width="67" height="77" viewBox="0 0 67 77" fill="none" xmlns="http://www.w3.org/2000/svg">
<path d="M66.4312 20.4968C66.4312 20.3093 66.3796 20.1048 66.2763 19.9343C66.2763 19.9173 66.2419 19.9002 66.2419 19.8832C66.1387 19.7298 66.001 19.5934 65.8462 19.4911C65.829 19.4911 65.8118 19.457 65.7946 19.44L33.6549 1.1662C33.2591 0.944599 32.7602 0.944599 32.3644 1.1662L1.10219 19.44C1.10219 19.44 1.08498 19.4741 1.06778 19.4741C0.895725 19.5763 0.758081 19.7127 0.654849 19.8832C0.654849 19.8832 0.654849 19.8832 0.654849 19.9002C0.551616 20.0707 0.517205 20.2582 0.5 20.4457C0.5 20.4628 0.5 20.4798 0.5 20.5139V56.7375C0.5 57.1978 0.740876 57.624 1.15381 57.8456L32.1408 75.5738C32.3816 75.8295 32.7085 76 33.0871 76C33.1215 76 33.1387 76 33.1731 76C33.1903 76 33.2075 76 33.2247 76C33.4484 76 33.6721 75.9489 33.8785 75.8295L65.8634 57.3342C66.2591 57.1126 66.5 56.6864 66.5 56.2262V20.548C66.5 20.548 66.5 20.5139 66.5 20.4968H66.4312ZM33.0182 3.75726L62.5428 20.5309L49.1569 27.9802L33.586 19.1331C33.586 19.1331 33.5516 19.1331 33.5344 19.1331C33.3624 19.0479 33.1731 18.9797 32.9494 18.9797C32.9494 18.9797 32.9494 18.9797 32.9322 18.9797C32.7258 18.9797 32.5365 19.0479 32.3644 19.1331C32.3472 19.1331 32.3128 19.1331 32.2956 19.1502L17.1893 27.9802L4.3024 20.548L33.0182 3.75726ZM33.0355 55.3056L19.8045 47.737L32.9666 40.4071L46.4901 47.5325L33.0182 55.3227L33.0355 55.3056ZM47.8665 30.1963V45.3335L34.2398 38.174V22.4572L47.8665 30.1963ZM31.6762 38.191L18.4969 45.538V30.1963L31.6762 22.4913V38.191ZM3.0464 22.764L15.9161 30.1792V47.7029C15.9161 47.7029 15.9161 47.737 15.9161 47.7541C15.9161 47.9416 15.9677 48.1461 16.0709 48.3166C16.1741 48.5041 16.3462 48.6746 16.5527 48.7939L31.745 57.4876V72.4203L3.0464 56.0216V22.764ZM34.3259 72.6078V57.5217L49.8107 48.5723C49.8107 48.5723 49.8451 48.5382 49.8624 48.5212C50 48.4359 50.1204 48.3166 50.2237 48.1632C50.2409 48.1291 50.2753 48.1121 50.2925 48.078C50.2925 48.078 50.2925 48.078 50.2925 48.0609C50.3957 47.8904 50.4301 47.7029 50.4301 47.5154C50.4301 47.5154 50.4301 47.4813 50.4301 47.4643V30.2133L63.8504 22.747V55.5443L34.3087 72.6248L34.3259 72.6078Z" fill="#8393B5" stroke="#8393B5"/>
</svg>
