<svg width="81" height="75" viewBox="0 0 81 75" fill="none" xmlns="http://www.w3.org/2000/svg">
<path d="M79.9999 29.1241C80.0341 28.9366 80.0341 28.7321 79.9657 28.5276C79.9657 28.5106 79.9315 28.4935 79.9315 28.4765C79.863 28.3061 79.7604 28.1527 79.6236 28.0334C79.5894 27.9993 79.5381 27.9652 79.4868 27.9312C79.3499 27.8289 79.2131 27.7607 79.0421 27.7267C79.0079 27.7267 78.9908 27.6926 78.9566 27.6926L60.2112 24.5569C57.5772 21.5065 54.2763 19.0695 50.4964 17.5017C50.4964 17.5017 50.4964 17.4847 50.4964 17.4676L41.6368 0.664622C41.5855 0.545331 41.5 0.460123 41.4145 0.374915C41.4145 0.374915 41.3803 0.357873 41.3632 0.340832C41.2777 0.255624 41.1579 0.187457 41.0553 0.136333C41.0211 0.119291 40.9869 0.102249 40.9527 0.0852079C40.8159 0.0340832 40.6619 0 40.508 0C40.3541 0 40.2001 0.0340832 40.0633 0.0852079C40.0291 0.0852079 39.9949 0.119291 39.9607 0.136333C39.841 0.187457 39.7383 0.255624 39.6357 0.357873C39.6357 0.357873 39.6015 0.374915 39.6015 0.391956C39.516 0.477164 39.4476 0.579414 39.3792 0.681663L30.3314 17.5869C26.5516 19.1888 23.2335 21.6769 20.6167 24.7614L2.05945 27.6926C2.05945 27.6926 1.99103 27.7267 1.95682 27.7437C1.80289 27.7778 1.66607 27.8459 1.52924 27.9312C1.47793 27.9652 1.44372 27.9993 1.39241 28.0334C1.27269 28.1527 1.17007 28.289 1.08455 28.4594C1.08455 28.4765 1.05034 28.4935 1.03324 28.5276C1.03324 28.5276 1.03324 28.5276 1.03324 28.5446C1.03324 28.5446 1.03324 28.5446 1.03324 28.5617C0.964825 28.7491 0.964825 28.9536 0.999031 29.1411C0.999031 29.1922 1.03324 29.2263 1.03324 29.2774C1.06745 29.4308 1.13586 29.5671 1.23848 29.7035C1.25558 29.7376 1.25558 29.7716 1.28979 29.8057L14.8357 45.3476C15.2975 48.3981 16.2895 51.2781 17.7262 53.8855L15.6054 73.6026C15.6054 73.7048 15.6054 73.8071 15.6054 73.9093V73.9434C15.6225 74.0798 15.6909 74.2161 15.7593 74.3524C15.7764 74.3865 15.7935 74.4206 15.8277 74.4547C15.8961 74.5569 15.9817 74.6592 16.0843 74.7273C16.1014 74.7273 16.1014 74.7614 16.1356 74.7785C16.1356 74.7785 16.1356 74.7785 16.1527 74.7785C16.1527 74.7785 16.1527 74.7785 16.1698 74.7955C16.2382 74.8466 16.3066 74.8637 16.375 74.8978C16.4092 74.9148 16.4606 74.9489 16.4948 74.9489C16.6145 74.983 16.7342 75 16.8539 75C17.0592 75 17.2644 74.9489 17.4354 74.8466C17.4354 74.8466 17.4354 74.8466 17.4526 74.8466L33.1364 66.2236C35.4625 66.9053 37.9254 67.2972 40.4567 67.2972C42.988 67.2972 45.5022 66.9053 47.8454 66.2236C47.8967 66.2747 47.948 66.3258 48.0164 66.3599L63.4608 74.8466C63.4608 74.8466 63.4608 74.8466 63.4779 74.8466C63.6661 74.9489 63.8542 75 64.0595 75C64.1792 75 64.2989 74.983 64.4186 74.9489C64.4528 74.9489 64.487 74.9148 64.5384 74.8978C64.6068 74.8637 64.6923 74.8466 64.7607 74.7955C64.7607 74.7955 64.7607 74.7955 64.7778 74.7785C64.7778 74.7785 64.7778 74.7785 64.7949 74.7785C64.812 74.7785 64.812 74.7444 64.8291 74.7273C64.9317 74.6421 65.0173 74.5569 65.0857 74.4547C65.1028 74.4206 65.137 74.3865 65.1541 74.3524C65.2225 74.2331 65.2738 74.0968 65.308 73.9434V73.9093C65.308 73.8071 65.3251 73.7048 65.308 73.6026L63.2385 53.8684C63.2385 53.8684 63.2214 53.8173 63.2214 53.8003C64.7094 51.0907 65.7014 48.0913 66.129 44.9216L79.6065 29.8057C79.6065 29.8057 79.6236 29.7376 79.6578 29.7035C79.7604 29.5842 79.8288 29.4479 79.863 29.2945C79.863 29.2434 79.8972 29.1922 79.8972 29.1411L79.9999 29.1241ZM65.5475 34.5774L74.6294 31.6121L66.4539 40.7805C66.4026 38.6333 66.0948 36.5542 65.5475 34.5774ZM73.3808 29.3456L64.7436 32.1575C64.1108 30.5215 63.324 28.9707 62.4004 27.5051L73.3808 29.3456ZM41.7908 6.45876L47.0073 16.3599C45.3312 15.9339 43.5866 15.6612 41.7908 15.576V6.45876ZM39.2252 6.37355V15.559C37.3781 15.6442 35.5993 15.9339 33.8719 16.377L39.2252 6.37355ZM14.5279 41.0532L6.26689 31.5951L15.4514 34.5774C14.887 36.6394 14.5621 38.8037 14.5279 41.0532ZM16.2553 32.1575L7.72069 29.3797L18.4959 27.6755C17.6065 29.09 16.8539 30.5726 16.2553 32.1575ZM24.2084 61.5201L18.6669 69.1036L19.9497 57.1745C21.1982 58.7764 22.6178 60.242 24.2084 61.5201ZM21.3179 69.8194L26.2779 63.0198C27.4581 63.7866 28.7066 64.4683 29.9894 65.0477L21.3008 69.8194H21.3179ZM17.0763 41.394C17.0763 28.5276 27.5778 18.0641 40.4909 18.0641C53.404 18.0641 63.9055 28.5276 63.9055 41.394C63.9055 54.2604 53.404 64.7239 40.4909 64.7239C27.5778 64.7239 17.0763 54.2604 17.0763 41.394ZM54.7381 63.0368L59.6981 69.8364L51.0095 65.0648C52.3094 64.4853 53.5579 63.8207 54.721 63.0368H54.7381ZM62.3662 69.1207L56.8076 61.5201C58.4153 60.2249 59.8349 58.7423 61.1006 57.1234L62.3662 69.1207Z" fill="#8393B5"/>
<path d="M40.5078 23.8926C30.8536 23.8926 23.0078 31.7384 23.0078 41.3926C23.0078 51.0467 30.8536 58.8926 40.5078 58.8926C50.162 58.8926 58.0078 51.0467 58.0078 41.3926C58.0078 31.7384 50.162 23.8926 40.5078 23.8926ZM40.5078 56.7051C32.0641 56.7051 25.1953 49.8363 25.1953 41.3926C25.1953 32.9488 32.0641 26.0801 40.5078 26.0801C48.9516 26.0801 55.8203 32.9488 55.8203 41.3926C55.8203 49.8363 48.9516 56.7051 40.5078 56.7051Z" fill="#8393B5"/>
<path d="M40.3411 42.8926L41.3545 41.7237L42.8078 42.3082L41.9811 41.0095L43.0078 39.8406L41.4745 40.2043L40.6611 38.8926L40.5411 40.425L39.0078 40.7757L40.4611 41.3601L40.3411 42.8926Z" fill="#8393B5" stroke="#8393B5" stroke-width="0.5"/>
<path d="M44.3305 49.1676L42.8946 46.8926L42.6852 49.5613L40.0078 50.1884L42.5505 51.2092L42.3262 53.8926L44.1211 51.8509L46.6638 52.8717L45.2279 50.5822L47.0078 48.5405L44.3305 49.1676Z" fill="#8393B5" stroke="#8393B5" stroke-width="0.5"/>
<path d="M53.0078 37.5405L50.3454 38.1676L48.8946 35.8926L48.6852 38.5613L46.0078 39.1884L48.5505 40.2092L48.3411 42.8926L50.1211 40.8509L52.6638 41.8717L51.2279 39.5822L53.0078 37.5405Z" fill="#8393B5" stroke="#8393B5" stroke-width="0.5"/>
<path d="M35 41.6479L32.3376 42.275L30.8868 40L30.6774 42.6688L28 43.2958L30.5427 44.3167L30.3333 47L32.1132 44.9583L34.656 45.9792L33.2201 43.6896L35 41.6479Z" fill="#8393B5" stroke="#8393B5" stroke-width="0.5"/>
<path d="M42 29.6479L39.3376 30.275L37.8868 28L37.6774 30.6688L35 31.2958L37.5427 32.3167L37.3333 35L39.1132 32.9583L41.656 33.9792L40.2201 31.6896L42 29.6479Z" fill="#8393B5" stroke="#8393B5" stroke-width="0.5"/>
</svg>
