<svg width="89" height="77" viewBox="0 0 89 77" fill="none" xmlns="http://www.w3.org/2000/svg">
<path d="M86.4891 75.9592H78.8937C78.0566 75.9592 77.3624 75.2652 77.3624 74.4282V39.9927L66.2143 34.563V74.4282C66.2143 75.2652 65.5201 75.9592 64.6829 75.9592H56.3933C55.5562 75.9592 54.862 75.2652 54.862 74.4282V11.0071L41.5905 4.27108L28.5027 11.0071L28.5435 27.337L41.0596 35.3795C41.4884 35.6652 41.7538 36.1551 41.7538 36.6654V74.4691C41.7538 75.306 41.0596 76 40.2225 76H27.1347C26.2976 76 25.6034 75.3264 25.6034 74.4691L25.4809 30.9704L13.6794 37.7881V74.4691C13.6794 75.306 12.9852 76 12.1481 76H2.53133C1.6942 76 1 75.306 1 74.4691C1 73.6322 1.6942 72.9381 2.53133 72.9381H10.6168V36.9104C10.6168 36.3593 10.9026 35.8489 11.3926 35.5836L25.4809 27.4391L25.44 10.0886C25.44 9.51704 25.7667 8.98632 26.2772 8.72096L40.8759 1.1684C41.3046 0.943866 41.8355 0.943866 42.2643 1.1684L57.0671 8.70055C57.5776 8.96591 57.9043 9.49663 57.9043 10.0682V72.9177H63.1312V32.1339C63.1312 31.6032 63.3966 31.1133 63.8458 30.8275C64.295 30.5417 64.8463 30.5213 65.3363 30.7459L79.5471 37.6656C80.0779 37.9106 80.4046 38.4617 80.4046 39.0333V72.8769H86.4687C87.3058 72.8769 88 73.5709 88 74.4078C88 75.2447 87.3058 75.9388 86.4687 75.9388L86.4891 75.9592ZM28.666 72.8973H38.6912V37.4615L28.5435 30.95L28.6456 72.8973H28.666Z" fill="#8393B5" stroke="#8393B5"/>
</svg>
