<svg width="97" height="75" viewBox="0 0 97 75" fill="none" xmlns="http://www.w3.org/2000/svg">
<path d="M96.3695 14.6593C96.284 14.1849 95.9633 13.7751 95.5357 13.5379C95.1081 13.3223 94.595 13.2791 94.1674 13.4732L88.5872 15.867L85.1451 12.8909L86.2141 8.75034L92.5425 6.31342C93.0556 6.11933 93.4405 5.64489 93.5474 5.08418C93.6543 4.52347 93.4619 3.96277 93.0343 3.57459C91.9225 2.58257 87.8817 -0.60915 82.3229 0.102516C77.427 0.72792 73.1937 4.24312 71.3337 9.09539L68.3619 10.0874C67.015 8.29746 64.9839 7.17605 62.7604 7.13292C61.0714 7.06822 59.6603 7.67206 58.6768 8.31903C56.9878 6.24872 54.4008 5.12731 51.7925 5.51549C49.7186 5.81741 48.1793 7.02509 47.1958 8.25433C45.6778 7.21918 43.8392 6.80943 42.0646 7.17605C39.8411 7.65049 38.0452 9.28948 37.2114 11.4245C36.1638 10.9716 34.7955 10.6697 33.2134 10.9069C29.7285 11.4676 28.125 14.2496 27.847 14.8103C27.7401 15.0259 27.676 15.2847 27.676 15.5435L27.5477 26.8008L22.0317 28.2457C20.3213 27.4046 15.4467 25.4422 9.37482 27.0596C2.5974 28.8711 -0.0964647 35.2114 0.609071 38.8775C0.694591 39.352 1.01529 39.7617 1.44289 39.999C1.87048 40.2362 2.3836 40.2577 2.83258 40.0637L8.41273 37.6699L11.8549 40.6459L10.7859 44.7865L4.45745 47.2235C3.92295 47.4175 3.55949 47.892 3.45259 48.4527C3.3457 49.0134 3.53811 49.5741 3.96571 49.9623C4.97057 50.868 8.34859 53.5206 13.0735 53.5206C13.5867 53.5206 14.1425 53.4991 14.677 53.4128C19.6158 52.7658 23.8918 49.2075 25.7304 44.2474L27.5263 43.2769C27.5691 45.7354 28.0822 47.9567 29.0657 49.8976C29.6643 51.0621 30.3485 51.9679 30.9471 52.7658C31.8451 53.9519 32.5506 54.9008 32.7858 56.3889C32.9354 57.3162 32.8927 58.3082 32.6361 59.3218H31.6099C30.7333 59.3218 30.0064 60.055 30.0064 60.9392V73.3826C30.0064 74.2668 30.7333 75 31.6099 75H65.3046C66.1811 75 66.9081 74.2668 66.9081 73.3826V60.9392C66.9081 60.055 66.1811 59.3218 65.3046 59.3218H63.9363C63.7011 58.3729 63.5514 57.4456 63.6369 56.5398C63.8935 53.1324 66.3308 50.6308 67.357 49.5525L67.6136 49.2938C71.633 45.0453 73.3006 37.5405 72.702 26.3695L75.1179 25.3559C76.9352 26.2185 81.7243 28.0516 87.6465 26.4773C94.4026 24.6874 97.0964 18.3471 96.3909 14.6809L96.3695 14.6593ZM66.0742 12.5459V21.3231C64.8556 20.8918 63.6369 20.5036 62.3755 20.1801C61.5631 19.986 60.7293 19.8351 59.8741 19.6841V11.4676C60.4086 10.9932 61.3707 10.3462 62.6535 10.4325C64.0432 10.4756 65.326 11.2951 66.0742 12.5675V12.5459ZM52.2415 8.75034C53.9946 8.49155 55.7691 9.48357 56.6671 11.1873V19.2528C56.3892 19.2312 56.1112 19.1881 55.8333 19.1665C55.3415 19.145 54.8498 19.3391 54.5291 19.7057C53.3532 21.0428 52.5622 22.6386 52.2415 24.3207C51.6428 27.5556 53.9091 30.1435 55.8547 31.7609C55.4698 31.8471 55.1278 31.8903 54.9353 31.9334C54.3795 32.0197 53.9732 32.1275 53.8236 32.1706C52.4339 32.6666 50.5738 31.9765 49.0986 30.4238V11.1657C49.4193 10.5619 50.4242 9.00913 52.2415 8.75034ZM42.706 10.3893C43.8392 10.1521 45.0151 10.5834 45.8916 11.446V30.0572L44.3095 30.8767C43.775 30.9845 43.155 31.0061 42.4922 30.8336C40.9957 30.4454 40.226 29.3455 39.9053 28.8064V14.0771C39.9053 12.2655 41.1026 10.7128 42.706 10.3893ZM33.7051 14.1418C35.0307 13.9261 36.0997 14.4437 36.6983 14.8534V28.4182C36.0569 28.828 34.881 29.3887 33.4486 29.1514C32.0589 28.9142 31.1609 28.0732 30.7119 27.534L30.8402 16.0395C31.2037 15.5004 32.123 14.379 33.6837 14.1418H33.7051ZM23.6566 41.6811C23.2931 41.8752 23.0152 42.2202 22.8869 42.6084C21.5827 46.7059 18.1833 49.6819 14.2494 50.1779C11.919 50.4799 9.90932 49.8545 8.45548 49.1212L12.6887 47.4822C13.1804 47.2882 13.5439 46.8784 13.6722 46.3824L15.1901 40.4734C15.3398 39.8696 15.1474 39.2442 14.677 38.8344L9.7169 34.5429C9.24654 34.1331 8.60514 34.0253 8.04927 34.2841L3.98709 36.0309C4.62849 33.9174 6.44578 31.2002 10.1659 30.2082C16.2805 28.5907 20.92 31.3296 20.9627 31.3727C21.3262 31.6099 21.7751 31.6746 22.2027 31.5668L28.5098 29.9278C29.3436 30.8336 30.7761 31.9981 32.9141 32.3647C34.9879 32.7098 36.6983 32.1275 37.8528 31.5021C38.3232 32.0844 38.9859 32.7098 39.8411 33.2274L28.5098 39.1148L23.678 41.7242L23.6566 41.6811ZM63.7011 71.7436H33.2134V62.5351H63.7011V71.7436ZM65.2618 47.0509L65.048 47.2882C63.7652 48.6037 60.772 51.7091 60.43 56.281C60.3444 57.2946 60.43 58.3082 60.6224 59.3218H35.9072C36.121 58.1572 36.1424 56.9927 35.9714 55.8713C35.5865 53.6069 34.5389 52.2051 33.5341 50.8465C32.9568 50.0701 32.4223 49.3585 31.952 48.4311C30.9685 46.5334 30.5837 44.2258 30.7975 41.5733L45.5068 33.939C46.2551 33.7234 46.8537 33.4214 47.3455 33.1411C49.0345 34.6938 51.0014 35.5996 52.8829 35.5996C53.567 35.5996 54.2298 35.4917 54.8712 35.2545C54.8926 35.2545 54.9567 35.2545 54.9995 35.233C54.9567 35.3623 54.914 35.4917 54.8712 35.6427C54.4436 37.5405 52.8615 39.0285 51.2152 40.6028C49.4835 42.2418 47.7089 43.9455 47.0462 46.2961C46.5544 48.0429 46.191 49.876 45.9558 51.7091C45.8489 52.5933 46.4689 53.4128 47.3455 53.5206C47.4096 53.5206 47.4738 53.5206 47.5593 53.5206C48.3503 53.5206 49.0345 52.9168 49.1414 52.1189C49.3552 50.4367 49.6973 48.7762 50.1462 47.1588C50.5525 45.6707 51.9635 44.3552 53.4174 42.9535C55.256 41.2066 57.3513 39.201 58.014 36.3544C58.2492 35.2976 58.8478 34.5429 59.2327 34.1331C59.5748 33.9822 59.8527 33.8096 60.0879 33.594C60.1734 33.5293 60.2589 33.4646 60.3444 33.3999C60.4086 33.3352 60.4941 33.3136 60.5369 33.2489C60.5369 33.2489 60.5369 33.2058 60.5582 33.2058C60.6224 33.1411 60.6438 33.0548 60.6865 32.9686C60.7293 32.8607 60.7934 32.7745 60.8148 32.6666C60.8362 32.5804 60.8362 32.5157 60.8576 32.4294C60.8576 32.3 60.8789 32.1922 60.8576 32.0628C60.8576 32.0412 60.8576 31.9981 60.8576 31.9765C60.8576 31.9118 60.8148 31.8687 60.7934 31.8256C60.772 31.7178 60.7293 31.5884 60.6651 31.4805C60.6224 31.3943 60.5582 31.3296 60.5155 31.2433C60.4727 31.2002 60.4513 31.1355 60.4086 31.0924C60.3444 31.0277 60.2803 30.9845 60.2162 30.9414C60.0879 30.8551 59.9596 30.7473 59.7458 30.6179C56.5816 28.526 55.1278 26.6283 55.4271 24.9677C55.6195 23.9541 56.0471 23.1346 56.4747 22.5308C58.2065 22.7033 59.9382 22.9837 61.6486 23.3934C64.3639 24.062 66.9936 25.0755 69.495 26.3695C70.0509 36.57 68.6612 43.5573 65.326 47.1156L65.2618 47.0509ZM86.8127 23.3287C80.7195 24.9461 76.0586 22.2073 76.0159 22.1642C75.5669 21.8838 75.0324 21.8407 74.562 22.0563L71.0771 23.5228C70.4785 23.2209 69.8799 22.8974 69.2812 22.6171V13.236L73.0655 11.9636C73.5572 11.7911 73.9207 11.4245 74.0917 10.9285C75.3959 6.831 78.7953 3.85494 82.7292 3.35893C85.0596 3.05701 87.0693 3.68241 88.5231 4.41565L84.2899 6.05463C83.7982 6.24873 83.4347 6.65847 83.3064 7.15448L81.7885 13.0635C81.6388 13.6673 81.8312 14.2927 82.3016 14.7025L87.2617 18.994C87.7321 19.4038 88.3735 19.49 88.9293 19.2528L92.9915 17.506C92.3501 19.6194 90.5542 22.3367 86.8127 23.3287Z" fill="#8393B5"/>
</svg>
