<svg width="85" height="77" viewBox="0 0 85 77" fill="none" xmlns="http://www.w3.org/2000/svg">
<path d="M51.2688 34.6324C50.9113 34.6324 50.5879 34.7687 50.3496 35.0243C50.1112 35.2799 49.975 35.6206 50.0091 35.9784C50.5028 45.1277 58.2143 52.4539 67.2708 52.4539C67.3729 52.4539 67.4921 52.4539 67.5942 52.4539C76.5825 52.2835 84.0218 45.0425 84.4984 35.9784C84.5154 35.6206 84.3963 35.2799 84.1579 35.0243C83.9196 34.7687 83.5791 34.6324 83.2387 34.6324H80.3277L69.5859 12.9264H73.6545C74.3525 12.9264 74.9313 12.3471 74.9313 11.6486C74.9313 10.95 74.3525 10.3707 73.6545 10.3707H43.7956V8.12176C45.1915 7.59359 46.1959 6.26465 46.1959 4.68015C46.1959 2.65266 44.5446 1 42.5188 1C40.493 1 38.8418 2.65266 38.8418 4.68015C38.8418 6.26465 39.8461 7.59359 41.2421 8.12176V10.3707H11.3491C10.6511 10.3707 10.0723 10.95 10.0723 11.6486C10.0723 12.3471 10.6511 12.9264 11.3491 12.9264H16.0135L5.28874 34.6324H1.76491C1.40742 34.6324 1.08397 34.7687 0.845644 35.0243C0.607317 35.2799 0.471131 35.6206 0.505177 35.9784C0.998854 45.1277 8.71043 52.4539 17.7669 52.4539C17.869 52.4539 17.9882 52.4539 18.0903 52.4539C27.0786 52.2835 34.5178 45.0425 34.9945 35.9784C35.0115 35.6206 34.8924 35.2799 34.654 35.0243C34.4157 34.7687 34.0752 34.6324 33.7348 34.6324H30.8238L20.082 12.9264H41.2421V51.0909H38.3821C37.6842 51.0909 37.1054 51.6701 37.1054 52.3687V60.3423H36.101C35.5903 60.3423 35.1307 60.649 34.9264 61.1261L32.424 67.0211H28.5767C27.8787 67.0211 27.2999 67.6004 27.2999 68.299V73.4443H16.2518C15.5538 73.4443 14.975 74.0236 14.975 74.7222C14.975 75.4207 15.5538 76 16.2518 76H68.7859C69.4838 76 70.0626 75.4207 70.0626 74.7222C70.0626 74.0236 69.4838 73.4443 68.7859 73.4443H57.7377V68.299C57.7377 67.6004 57.1589 67.0211 56.4609 67.0211H52.5966L49.975 61.109C49.7708 60.649 49.3111 60.3423 48.8004 60.3423H47.9152V52.3687C47.9152 51.6701 47.3364 51.0909 46.6385 51.0909H43.7785V12.9094H65.5174L54.7927 34.6154H51.2688V34.6324ZM42.4848 3.53862C43.1146 3.53862 43.6083 4.04975 43.6083 4.66311C43.6083 5.27647 43.0976 5.7876 42.4848 5.7876C41.8719 5.7876 41.3612 5.27647 41.3612 4.66311C41.3612 4.04975 41.8719 3.53862 42.4848 3.53862ZM18.0222 49.8982C10.6 49.9664 4.25032 44.4462 3.17784 37.1881H32.2878C31.2494 44.2758 25.2231 49.7619 18.0052 49.8982H18.0222ZM8.13164 34.6324L18.0222 14.5961L27.9468 34.6324H8.13164ZM50.5709 68.8101C50.7751 69.2701 51.2348 69.5768 51.7455 69.5768H55.1501V73.4443H29.8364V69.5768H40.5441C41.2421 69.5768 41.8209 68.9975 41.8209 68.299C41.8209 67.6004 41.2421 67.0211 40.5441 67.0211H35.1817L36.9352 62.915H47.9663L50.5879 68.8271L50.5709 68.8101ZM45.3277 60.3423H39.6248V53.6465H45.3277V60.3423ZM67.5091 49.8982C67.424 49.8982 67.3218 49.8982 67.2367 49.8982C59.9678 49.8982 53.7202 44.361 52.6647 37.1881H81.7747C80.7362 44.2758 74.71 49.7619 67.4921 49.8982H67.5091ZM67.5261 14.5961L77.4507 34.6324H57.6356L67.5261 14.5961Z" fill="#8393B5" stroke="#8393B5"/>
</svg>
