<svg width="38" height="39" viewBox="0 0 38 39" fill="none" xmlns="http://www.w3.org/2000/svg">
<rect y="0.25" width="38" height="38" rx="19" fill="white"/>
<path d="M27.1482 10.5966C26.0885 9.53178 24.8263 8.68752 23.4353 8.11298C22.0443 7.53843 20.5523 7.2451 19.0462 7.25006C12.7357 7.25006 7.59246 12.3675 7.59246 18.6465C7.59246 20.659 8.12412 22.614 9.11809 24.339L7.5 30.25L13.5678 28.663C15.2437 29.5715 17.1276 30.0545 19.0462 30.0545C25.3568 30.0545 30.5 24.937 30.5 18.658C30.5 15.6105 29.3095 12.747 27.1482 10.5966ZM19.0462 28.1225C17.3357 28.1225 15.6598 27.6625 14.192 26.8L13.8452 26.593L10.2392 27.536L11.1985 24.04L10.9673 23.6835C10.0168 22.1736 9.51212 20.4282 9.51105 18.6465C9.51105 13.4255 13.7874 9.17056 19.0347 9.17056C21.5774 9.17056 23.9698 10.1596 25.7613 11.9535C26.6485 12.832 27.3516 13.877 27.8297 15.0279C28.3079 16.1788 28.5516 17.4127 28.5467 18.658C28.5698 23.879 24.2935 28.1225 19.0462 28.1225ZM24.2703 21.0385C23.9814 20.9005 22.5714 20.2105 22.3171 20.107C22.0513 20.015 21.8663 19.969 21.6698 20.245C21.4734 20.5325 20.9301 21.1765 20.7683 21.3605C20.6065 21.556 20.4332 21.579 20.1442 21.4295C19.8553 21.2915 18.9307 20.981 17.8442 20.015C16.9889 19.256 16.4226 18.3245 16.2492 18.037C16.0874 17.7495 16.2261 17.6 16.3764 17.4505C16.5035 17.324 16.6653 17.117 16.804 16.956C16.9427 16.795 17.0005 16.6685 17.093 16.4845C17.1854 16.289 17.1392 16.128 17.0698 15.99C17.0005 15.852 16.4226 14.449 16.1915 13.874C15.9603 13.322 15.7176 13.391 15.5442 13.3795H14.9894C14.793 13.3795 14.4925 13.4485 14.2266 13.736C13.9724 14.0235 13.2327 14.7135 13.2327 16.1165C13.2327 17.5195 14.2613 18.8765 14.4 19.0605C14.5387 19.256 16.4226 22.131 19.2889 23.3615C19.9709 23.6605 20.5025 23.833 20.9186 23.9595C21.6005 24.178 22.2246 24.1435 22.7216 24.0745C23.2764 23.994 24.4206 23.3845 24.6518 22.7175C24.8945 22.0505 24.8945 21.487 24.8136 21.3605C24.7327 21.234 24.5593 21.1765 24.2703 21.0385Z" fill="#36476B"/>
</svg>
