<svg width="38" height="38" viewBox="0 0 38 38" fill="none" xmlns="http://www.w3.org/2000/svg">
<rect width="38" height="38" rx="19" fill="white"/>
<path fill-rule="evenodd" clip-rule="evenodd" d="M23.2715 17.2715C23.2715 18.3324 22.8501 19.3498 22.0999 20.0999C21.3498 20.8501 20.3323 21.2715 19.2715 21.2715C18.2106 21.2715 17.1932 20.8501 16.4431 20.0999C15.6929 19.3498 15.2715 18.3324 15.2715 17.2715C15.2715 16.2106 15.6929 15.1932 16.4431 14.4431C17.1932 13.6929 18.2106 13.2715 19.2715 13.2715C20.3323 13.2715 21.3498 13.6929 22.0999 14.4431C22.8501 15.1932 23.2715 16.2106 23.2715 17.2715ZM21.2715 17.2715C21.2715 17.8019 21.0608 18.3106 20.6857 18.6857C20.3106 19.0608 19.8019 19.2715 19.2715 19.2715C18.7411 19.2715 18.2323 19.0608 17.8573 18.6857C17.4822 18.3106 17.2715 17.8019 17.2715 17.2715C17.2715 16.7411 17.4822 16.2323 17.8573 15.8573C18.2323 15.4822 18.7411 15.2715 19.2715 15.2715C19.8019 15.2715 20.3106 15.4822 20.6857 15.8573C21.0608 16.2323 21.2715 16.7411 21.2715 17.2715Z" fill="#36476B"/>
<path fill-rule="evenodd" clip-rule="evenodd" d="M12.794 23.5181C11.5048 22.2907 10.6086 20.7085 10.2186 18.9717C9.82867 17.2349 9.96248 15.4215 10.6031 13.7607C11.2438 12.1 12.3626 10.6665 13.8179 9.6416C15.2733 8.61668 16.9999 8.04634 18.7794 8.00271C20.5589 7.95907 22.3114 8.4441 23.8152 9.39646C25.319 10.3488 26.5067 11.7257 27.228 13.3531C27.9493 14.9804 28.1718 16.7851 27.8674 18.539C27.5631 20.2928 26.7455 21.917 25.518 23.2061L19.312 29.7241L12.794 23.5181ZM24.07 21.8271L19.243 26.8971L14.173 22.0701C13.1704 21.1154 12.4733 19.8849 12.1701 18.5341C11.8668 17.1833 11.9708 15.7729 12.4691 14.4812C12.9674 13.1895 13.8375 12.0746 14.9694 11.2775C16.1013 10.4803 17.4442 10.0367 18.8282 10.0027C20.2122 9.96871 21.5752 10.3459 22.7449 11.0865C23.9146 11.8272 24.8383 12.8981 25.3994 14.1637C25.9605 15.4294 26.1336 16.833 25.897 18.197C25.6604 19.5611 25.0246 20.8244 24.07 21.8271Z" fill="#36476B"/>
</svg>
