<?xml version="1.0" encoding="UTF-8"?>
<svg id="logos" xmlns="http://www.w3.org/2000/svg" viewBox="0 0 1800 1492.78">
  <defs>
    <style>
      .cls-1 {
        fill: #36476b;
      }
    </style>
  </defs>
  <polygon class="cls-1" points="150.98 218.88 151.02 218.88 151.02 217.56 1697.75 217.56 1697.75 161.72 102.23 161.72 102.23 1331.06 150.98 1331.06 150.98 218.88"/>
  <path class="cls-1" d="M1442.04,846.77l93.56,219.49,90.33-219.49h71.84v-38l-.83-549.55H192.62v1071.72l1505.15.09v-151.35h-110.11v-9.06h10.72c9.89,0,17.75-1.76,23.58-5.18,4.16-2.31,7.4-6.19,9.89-11.74,1.76-3.98,2.68-14.24,2.68-30.97v-246.76l-127.68,303.71h-5.92l-129.62-301.49v234.46c0,16.36.46,26.44,1.2,30.23,2.22,8.14,6.75,14.79,13.87,19.97,7.12,5.18,18.31,7.77,33.56,7.77v9.06h-113.9v-9.06h3.42c7.4.19,14.24-1.02,20.62-3.61,6.38-2.5,11.19-5.92,14.52-10.17,3.23-4.25,5.83-10.26,7.58-17.94.28-1.76.46-10.08.46-25.06v-210.61c0-16.83-.83-27.37-2.68-31.53-1.76-4.16-5.46-7.86-11-11.09-5.64-3.14-13.04-4.72-22.37-4.72h-10.54v-9.15h136ZM957.68,1179.7h-173.81v-9.06h10.73c9.89,0,17.75-1.76,23.58-5.18,4.16-2.31,7.4-6.19,9.8-11.74,1.85-3.98,2.77-14.24,2.77-30.97v-246.76l-127.68,303.71h-5.92l-129.62-301.49v234.46c0,16.36.46,26.44,1.2,30.23,2.13,8.14,6.75,14.79,13.87,19.97,7.12,5.18,18.31,7.77,33.56,7.77v9.06h-113.9v-9.06h3.42c7.4.19,14.24-1.02,20.62-3.61,6.38-2.5,11.19-5.92,14.52-10.17,3.23-4.25,5.82-10.26,7.58-17.94.28-1.76.46-10.08.46-25.06v-210.61c0-16.83-.92-27.37-2.68-31.53-1.76-4.16-5.45-7.86-11-11.09-5.64-3.14-13.04-4.72-22.37-4.72h-10.54v-9.15h136l93.56,219.49,90.33-219.49h135.54v9.15h-10.82c-9.89,0-17.66,1.66-23.58,5.09-4.16,2.31-7.39,6.19-9.8,11.56-1.85,3.98-2.77,14.15-2.77,30.69v219.49c0,17.01.92,27.64,2.77,31.9,1.76,4.25,5.46,8.04,11,11.19,5.55,3.24,13.04,4.81,22.37,4.81h10.82v9.06ZM1312.79,1040v9.06c-12.3.83-20.8,2.5-25.61,5.08-4.9,2.5-8.6,6.75-11.19,12.67-1.48,3.05-2.22,10.72-2.22,22.84v69.16c-21.26,9.52-43.36,16.64-66.38,21.54-23.02,4.81-46.87,7.21-71.56,7.21-31.62,0-57.88-4.25-78.68-12.85-20.89-8.6-39.29-19.88-55.29-33.93-15.9-13.96-28.38-29.77-37.44-47.24-11.47-22.56-17.2-47.89-17.2-75.9,0-50.02,17.66-92.36,52.79-126.85,35.23-34.58,79.51-51.87,132.85-51.87,16.46,0,31.44,1.29,44.66,3.98,7.21,1.29,18.86,4.99,34.95,11.19,16.18,6.1,25.7,9.15,28.66,9.15,4.53,0,8.78-1.66,12.76-4.99,3.88-3.42,7.49-9.71,10.82-19.05h9.06v117.32h-9.06c-11-32.08-27.46-56.4-49.37-73.13-21.91-16.73-45.95-25.06-71.93-25.06s-45.58,7.03-62.13,20.99c-16.55,14.05-28.2,33.56-35.13,58.52-6.84,25.05-10.26,50.76-10.26,77.11,0,31.9,3.79,59.91,11.28,83.95,7.58,24.13,19.69,41.79,36.43,53.07,16.83,11.28,36.7,16.92,59.82,16.92,8.04,0,16.27-.83,24.68-2.59,8.41-1.66,17.01-4.16,25.89-7.49v-69.16c0-13.13-.92-21.63-2.68-25.42-1.85-3.88-5.55-7.3-11.19-10.45-5.64-3.14-12.48-4.72-20.52-4.72h-8.6v-9.06h161.79Z"/>
</svg>