<svg width="1366" height="488" viewBox="0 0 1366 488" fill="none" xmlns="http://www.w3.org/2000/svg">
<path d="M20.19 26.67H20.21V26.13H660.77V3H0V487.27H20.19V26.67Z" fill="white"/>
<path d="M554.869 286.711L593.619 377.611L631.029 286.711H660.779V270.971L660.439 43.3809H37.4395V487.221L660.779 487.261V424.581H615.18V420.831H619.619C623.719 420.831 626.969 420.101 629.379 418.691C631.099 417.731 632.439 416.121 633.479 413.831C634.209 412.181 634.589 407.931 634.589 401.001V298.811L581.709 424.591H579.259L525.579 299.731V396.831C525.579 403.611 525.769 407.781 526.079 409.351C526.999 412.721 528.869 415.481 531.819 417.621C534.769 419.761 539.399 420.841 545.719 420.841V424.591H498.549V420.841H499.969C503.029 420.921 505.869 420.421 508.509 419.351C511.149 418.321 513.139 416.901 514.519 415.141C515.859 413.381 516.929 410.891 517.659 407.711C517.769 406.981 517.849 403.541 517.849 397.331V310.111C517.849 303.141 517.51 298.781 516.74 297.051C516.01 295.331 514.48 293.801 512.18 292.461C509.84 291.161 506.779 290.511 502.909 290.511H498.549V286.721H554.869V286.711ZM354.279 424.591H282.299V420.841H286.739C290.839 420.841 294.089 420.111 296.499 418.701C298.219 417.741 299.559 416.131 300.559 413.841C301.329 412.191 301.709 407.941 301.709 401.011V298.821L248.829 424.601H246.379L192.699 299.741V396.841C192.699 403.621 192.889 407.791 193.199 409.361C194.079 412.731 195.989 415.491 198.939 417.631C201.889 419.771 206.519 420.851 212.839 420.851V424.601H165.669V420.851H167.089C170.149 420.931 172.989 420.431 175.629 419.361C178.269 418.331 180.259 416.911 181.639 415.151C182.979 413.391 184.049 410.901 184.779 407.721C184.889 406.991 184.969 403.551 184.969 397.341V310.121C184.969 303.151 184.589 298.791 183.859 297.061C183.129 295.341 181.599 293.811 179.299 292.471C176.959 291.171 173.899 290.521 170.029 290.521H165.659V286.731H221.979L260.729 377.631L298.139 286.731H354.269V290.521H349.789C345.689 290.521 342.479 291.211 340.029 292.631C338.309 293.591 336.969 295.201 335.969 297.421C335.199 299.071 334.819 303.281 334.819 310.131V401.031C334.819 408.071 335.199 412.481 335.969 414.241C336.699 416.001 338.229 417.571 340.529 418.871C342.829 420.211 345.929 420.861 349.799 420.861H354.279V424.611V424.591ZM501.339 366.731V370.481C496.249 370.821 492.729 371.511 490.729 372.591C488.699 373.621 487.169 375.391 486.099 377.841C485.489 379.101 485.18 382.281 485.18 387.301V415.941C476.37 419.881 467.219 422.831 457.689 424.861C448.159 426.851 438.279 427.851 428.049 427.851C414.959 427.851 404.079 426.091 395.469 422.531C386.819 418.971 379.199 414.301 372.569 408.481C365.979 402.701 360.819 396.151 357.059 388.911C352.309 379.571 349.939 369.081 349.939 357.481C349.939 336.771 357.249 319.231 371.799 304.951C386.389 290.631 404.729 283.471 426.819 283.471C433.639 283.471 439.839 284.011 445.309 285.121C448.299 285.661 453.119 287.191 459.779 289.751C466.479 292.281 470.419 293.541 471.649 293.541C473.529 293.541 475.29 292.851 476.93 291.471C478.54 290.051 480.029 287.451 481.409 283.581H485.159V332.171H481.409C476.849 318.881 470.039 308.811 460.959 301.881C451.889 294.951 441.929 291.501 431.169 291.501C420.409 291.501 412.289 294.411 405.439 300.191C398.589 306.011 393.759 314.091 390.889 324.431C388.059 334.811 386.639 345.451 386.639 356.361C386.639 369.571 388.209 381.171 391.309 391.131C394.449 401.121 399.469 408.441 406.399 413.111C413.369 417.781 421.599 420.121 431.169 420.121C434.499 420.121 437.909 419.781 441.389 419.051C444.869 418.361 448.439 417.331 452.109 415.951V387.311C452.109 381.871 451.729 378.351 450.999 376.781C450.229 375.171 448.699 373.761 446.369 372.451C444.029 371.151 441.199 370.501 437.869 370.501H434.309V366.751H501.319L501.339 366.731Z" fill="white"/>
<g opacity="0.5">
<path d="M746.402 467.97H727.992L724.762 475.48C723.962 477.33 723.572 478.71 723.572 479.62C723.572 480.35 723.912 480.98 724.602 481.53C725.292 482.08 726.782 482.44 729.072 482.6V483.9H714.092V482.6C716.082 482.25 717.362 481.79 717.952 481.23C719.142 480.11 720.462 477.83 721.912 474.39L738.642 435.25H739.872L756.422 474.81C757.752 477.99 758.962 480.05 760.052 481C761.142 481.95 762.652 482.48 764.592 482.6V483.9H745.832V482.6C747.722 482.51 749.002 482.19 749.672 481.65C750.342 481.11 750.672 480.46 750.672 479.69C750.672 478.66 750.202 477.04 749.272 474.82L746.392 467.98L746.402 467.97ZM745.422 465.37L737.352 446.15L729.072 465.37H745.412H745.422Z" fill="white"/>
<path d="M768.432 483.89V482.59H770.222C772.232 482.59 773.662 481.95 774.502 480.66C775.012 479.89 775.272 478.16 775.272 475.47V444.75C775.272 441.78 774.942 439.92 774.292 439.17C773.382 438.14 772.022 437.63 770.222 437.63H768.432V436.33H787.792C794.902 436.33 800.302 437.14 804.012 438.75C807.722 440.36 810.702 443.05 812.952 446.82C815.212 450.59 816.332 454.93 816.332 459.87C816.332 466.49 814.322 472.02 810.302 476.46C805.792 481.42 798.912 483.89 789.682 483.89H768.432ZM782.002 480.45C784.972 481.11 787.462 481.43 789.472 481.43C794.892 481.43 799.402 479.52 802.972 475.71C806.552 471.9 808.342 466.73 808.342 460.21C808.342 453.69 806.552 448.46 802.972 444.67C799.392 440.88 794.802 438.99 789.192 438.99C787.092 438.99 784.692 439.33 782.002 440.01V480.44V480.45Z" fill="white"/>
<path d="M871.862 436.331V437.631C870.182 437.931 868.902 438.471 868.042 439.241C866.802 440.391 865.702 442.141 864.742 444.501L848.152 484.971H846.852L829.032 443.971C828.122 441.871 827.482 440.581 827.102 440.111C826.522 439.391 825.802 438.821 824.942 438.411C824.092 438.001 822.932 437.741 821.492 437.621V436.321H840.922V437.621C838.722 437.831 837.302 438.201 836.642 438.741C835.992 439.281 835.662 439.971 835.662 440.811C835.662 441.981 836.202 443.801 837.272 446.281L849.372 474.161L860.592 446.631C861.692 443.921 862.242 442.041 862.242 440.981C862.242 440.301 861.902 439.651 861.222 439.031C860.542 438.411 859.402 437.971 857.782 437.721C857.662 437.701 857.462 437.661 857.182 437.611V436.311H871.842L871.862 436.331Z" fill="white"/>
<path d="M900.802 435.25C906.972 435.25 912.322 437.59 916.842 442.28C921.362 446.97 923.632 452.82 923.632 459.83C923.632 466.84 921.352 473.05 916.792 477.82C912.232 482.59 906.712 484.97 900.242 484.97C893.772 484.97 888.202 482.64 883.742 477.99C879.292 473.34 877.062 467.32 877.062 459.93C877.062 452.54 879.632 446.22 884.772 441.45C889.242 437.31 894.582 435.24 900.802 435.24V435.25ZM900.132 437.81C895.872 437.81 892.462 439.39 889.892 442.54C886.692 446.47 885.092 452.22 885.092 459.79C885.092 467.36 886.753 473.53 890.073 477.71C892.623 480.89 895.982 482.48 900.172 482.48C904.632 482.48 908.322 480.74 911.232 477.26C914.142 473.78 915.602 468.28 915.602 460.78C915.602 452.64 914.002 446.58 910.802 442.58C908.232 439.4 904.672 437.81 900.142 437.81H900.132Z" fill="white"/>
<path d="M971.432 435.25L972.521 451.42H971.432C969.982 446.58 967.911 443.1 965.221 440.97C962.531 438.84 959.312 437.78 955.542 437.78C952.382 437.78 949.531 438.58 946.981 440.18C944.431 441.78 942.432 444.34 940.962 447.84C939.502 451.35 938.771 455.71 938.771 460.92C938.771 465.22 939.461 468.95 940.841 472.11C942.221 475.27 944.292 477.68 947.062 479.37C949.832 481.05 952.992 481.89 956.552 481.89C959.632 481.89 962.361 481.23 964.721 479.91C967.081 478.59 969.681 475.96 972.511 472.04L973.601 472.74C971.221 476.97 968.431 480.07 965.251 482.03C962.071 483.99 958.292 484.97 953.922 484.97C946.042 484.97 939.941 482.05 935.611 476.2C932.381 471.85 930.771 466.73 930.771 460.84C930.771 456.09 931.832 451.73 933.962 447.76C936.092 443.79 939.021 440.71 942.741 438.52C946.471 436.33 950.542 435.24 954.962 435.24C958.402 435.24 961.791 436.08 965.131 437.76C966.111 438.28 966.811 438.53 967.231 438.53C967.861 438.53 968.411 438.31 968.881 437.86C969.491 437.23 969.922 436.35 970.182 435.23H971.411L971.432 435.25Z" fill="white"/>
<path d="M1010.75 467.97H992.341L989.111 475.48C988.311 477.33 987.921 478.71 987.921 479.62C987.921 480.35 988.261 480.98 988.951 481.53C989.641 482.08 991.131 482.44 993.421 482.6V483.9H978.441V482.6C980.431 482.25 981.711 481.79 982.301 481.23C983.491 480.11 984.811 477.83 986.261 474.39L1002.99 435.25H1004.22L1020.77 474.81C1022.1 477.99 1023.31 480.05 1024.4 481C1025.49 481.95 1027 482.48 1028.94 482.6V483.9H1010.18V482.6C1012.07 482.51 1013.35 482.19 1014.02 481.65C1014.69 481.11 1015.02 480.46 1015.02 479.69C1015.02 478.66 1014.55 477.04 1013.62 474.82L1010.74 467.98L1010.75 467.97ZM1009.77 465.37L1001.7 446.15L993.421 465.37H1009.76H1009.77Z" fill="white"/>
<path d="M1074.8 435.25L1075.89 451.42H1074.8C1073.35 446.58 1071.28 443.1 1068.59 440.97C1065.9 438.84 1062.68 437.78 1058.91 437.78C1055.75 437.78 1052.9 438.58 1050.35 440.18C1047.8 441.78 1045.8 444.34 1044.33 447.84C1042.87 451.35 1042.14 455.71 1042.14 460.92C1042.14 465.22 1042.83 468.95 1044.21 472.11C1045.59 475.27 1047.66 477.68 1050.43 479.37C1053.2 481.05 1056.36 481.89 1059.92 481.89C1063 481.89 1065.73 481.23 1068.09 479.91C1070.45 478.59 1073.05 475.96 1075.88 472.04L1076.97 472.74C1074.59 476.97 1071.8 480.07 1068.62 482.03C1065.44 483.99 1061.66 484.97 1057.29 484.97C1049.41 484.97 1043.31 482.05 1038.98 476.2C1035.75 471.85 1034.14 466.73 1034.14 460.84C1034.14 456.09 1035.2 451.73 1037.33 447.76C1039.46 443.79 1042.39 440.71 1046.11 438.52C1049.84 436.33 1053.91 435.24 1058.33 435.24C1061.77 435.24 1065.16 436.08 1068.5 437.76C1069.48 438.28 1070.18 438.53 1070.6 438.53C1071.23 438.53 1071.78 438.31 1072.25 437.86C1072.86 437.23 1073.29 436.35 1073.55 435.23H1074.78L1074.8 435.25Z" fill="white"/>
<path d="M1103.42 482.59V483.89H1083.05V482.59H1084.73C1086.69 482.59 1088.12 482.02 1089.01 480.87C1089.57 480.12 1089.85 478.32 1089.85 475.47V444.75C1089.85 442.34 1089.7 440.75 1089.39 439.98C1089.16 439.4 1088.68 438.89 1087.95 438.47C1086.92 437.91 1085.85 437.63 1084.72 437.63H1083.04V436.33H1103.41V437.63H1101.69C1099.75 437.63 1098.33 438.2 1097.45 439.35C1096.87 440.1 1096.57 441.9 1096.57 444.75V475.47C1096.57 477.88 1096.72 479.47 1097.02 480.24C1097.25 480.82 1097.74 481.33 1098.49 481.75C1099.49 482.31 1100.56 482.59 1101.68 482.59H1103.4H1103.42Z" fill="white"/>
<path d="M1139.83 467.97H1121.42L1118.19 475.48C1117.39 477.33 1117 478.71 1117 479.62C1117 480.35 1117.34 480.98 1118.03 481.53C1118.72 482.08 1120.21 482.44 1122.5 482.6V483.9H1107.52V482.6C1109.51 482.25 1110.79 481.79 1111.38 481.23C1112.57 480.11 1113.89 477.83 1115.34 474.39L1132.07 435.25H1133.3L1149.85 474.81C1151.18 477.99 1152.39 480.05 1153.48 481C1154.57 481.95 1156.08 482.48 1158.02 482.6V483.9H1139.26V482.6C1141.15 482.51 1142.43 482.19 1143.1 481.65C1143.77 481.11 1144.1 480.46 1144.1 479.69C1144.1 478.66 1143.63 477.04 1142.7 474.82L1139.82 467.98L1139.83 467.97ZM1138.85 465.37L1130.78 446.15L1122.5 465.37H1138.84H1138.85Z" fill="white"/>
</g>
<path d="M1316.92 378.67H711.381V387.87H1316.92V378.67Z" fill="white"/>
<path d="M740.32 2.0293L760.22 60.5293H760.46L779.28 2.0293H805.61V87.0993H788.1V26.8193H787.86L767.01 87.0993H752.59L731.74 27.4093H731.5V87.0993H713.99V2.0293H740.32Z" fill="white"/>
<path d="M864.461 2.0293L896.271 87.0993H876.851L870.421 68.1593H838.611L831.941 87.0993H813.121L845.291 2.0293H864.471H864.461ZM865.531 54.2093L854.811 22.9893H854.571L843.491 54.2093H865.531Z" fill="white"/>
<path d="M886.031 17.7593V2.0293H955.731V17.7593H930.231V87.0993H911.531V17.7593H886.031Z" fill="white"/>
<path d="M964.661 27.2298C966.571 21.7898 969.311 17.0398 972.881 12.9898C976.451 8.93977 980.841 5.75977 986.051 3.45977C991.251 1.15977 997.111 0.00976562 1003.62 0.00976562C1010.13 0.00976562 1016.09 1.15977 1021.25 3.45977C1026.41 5.75977 1030.78 8.93977 1034.36 12.9898C1037.93 17.0398 1040.67 21.7898 1042.58 27.2298C1044.49 32.6698 1045.44 38.5698 1045.44 44.9198C1045.44 51.2698 1044.49 56.8898 1042.58 62.2598C1040.67 67.6198 1037.93 72.2898 1034.36 76.2598C1030.79 80.2298 1026.42 83.3498 1021.25 85.6098C1016.09 87.8698 1010.21 89.0098 1003.62 89.0098C997.031 89.0098 991.251 87.8798 986.051 85.6098C980.851 83.3498 976.461 80.2298 972.881 76.2598C969.311 72.2898 966.571 67.6198 964.661 62.2598C962.751 56.8998 961.801 51.1198 961.801 44.9198C961.801 38.7198 962.751 32.6698 964.661 27.2298ZM981.751 55.3398C982.581 58.7198 983.911 61.7598 985.741 64.4598C987.571 67.1598 989.951 69.3298 992.891 70.9498C995.831 72.5798 999.401 73.3898 1003.61 73.3898C1007.82 73.3898 1011.39 72.5798 1014.33 70.9498C1017.27 69.3198 1019.65 67.1598 1021.48 64.4598C1023.31 61.7598 1024.64 58.7198 1025.47 55.3398C1026.3 51.9698 1026.72 48.4898 1026.72 44.9198C1026.72 41.3498 1026.3 37.5698 1025.47 34.0798C1024.64 30.5898 1023.3 27.4698 1021.48 24.7298C1019.65 21.9898 1017.27 19.8098 1014.33 18.1798C1011.39 16.5498 1007.82 15.7398 1003.61 15.7398C999.401 15.7398 995.831 16.5598 992.891 18.1798C989.951 19.8098 987.571 21.9898 985.741 24.7298C983.911 27.4698 982.581 30.5898 981.751 34.0798C980.921 37.5798 980.501 41.1898 980.501 44.9198C980.501 48.6498 980.921 51.9698 981.751 55.3398Z" fill="white"/>
<path d="M1072.48 66.13C1073.51 68.12 1074.88 69.72 1076.59 70.96C1078.3 72.19 1080.3 73.1 1082.61 73.7C1084.91 74.29 1087.3 74.59 1089.76 74.59C1091.43 74.59 1093.22 74.45 1095.12 74.17C1097.02 73.89 1098.81 73.36 1100.48 72.56C1102.15 71.77 1103.54 70.67 1104.65 69.28C1105.76 67.89 1106.32 66.12 1106.32 63.98C1106.32 61.68 1105.58 59.81 1104.12 58.38C1102.65 56.95 1100.72 55.76 1098.34 54.81C1095.96 53.86 1093.26 53.02 1090.24 52.31C1087.22 51.6 1084.16 50.8 1081.07 49.93C1077.89 49.14 1074.79 48.16 1071.78 47.01C1068.76 45.86 1066.06 44.37 1063.68 42.54C1061.3 40.71 1059.37 38.43 1057.9 35.69C1056.43 32.95 1055.7 29.64 1055.7 25.74C1055.7 21.37 1056.63 17.58 1058.5 14.36C1060.37 11.14 1062.81 8.46 1065.83 6.32C1068.85 4.18 1072.26 2.59 1076.08 1.55C1079.89 0.519995 1083.7 0 1087.52 0C1091.97 0 1096.24 0.499998 1100.33 1.49C1104.42 2.49 1108.05 4.09 1111.23 6.32C1114.41 8.55 1116.93 11.38 1118.8 14.84C1120.66 18.29 1121.6 22.49 1121.6 27.41H1103.49C1103.33 24.87 1102.79 22.76 1101.88 21.1C1100.97 19.43 1099.75 18.12 1098.25 17.17C1096.74 16.22 1095.01 15.54 1093.07 15.14C1091.12 14.74 1089 14.55 1086.7 14.55C1085.19 14.55 1083.68 14.71 1082.17 15.03C1080.66 15.35 1079.29 15.9 1078.06 16.7C1076.83 17.5 1075.81 18.49 1075.02 19.68C1074.22 20.87 1073.83 22.38 1073.83 24.21C1073.83 25.88 1074.15 27.23 1074.78 28.26C1075.42 29.29 1076.67 30.25 1078.53 31.12C1080.39 31.99 1082.98 32.87 1086.27 33.74C1089.56 34.61 1093.87 35.73 1099.2 37.08C1100.79 37.4 1102.99 37.97 1105.81 38.81C1108.63 39.64 1111.43 40.98 1114.21 42.8C1116.99 44.63 1119.39 47.07 1121.42 50.13C1123.45 53.19 1124.46 57.1 1124.46 61.87C1124.46 65.76 1123.7 69.38 1122.2 72.71C1120.69 76.05 1118.45 78.92 1115.47 81.35C1112.49 83.77 1108.8 85.66 1104.39 87.01C1099.98 88.36 1094.88 89.04 1089.08 89.04C1084.39 89.04 1079.85 88.46 1075.44 87.31C1071.03 86.16 1067.14 84.35 1063.76 81.89C1060.38 79.43 1057.7 76.29 1055.72 72.48C1053.73 68.67 1052.78 64.14 1052.86 58.9H1070.97C1070.97 61.76 1071.49 64.18 1072.52 66.17L1072.48 66.13Z" fill="white"/>
<path d="M764.381 212.2C760.331 213.91 756.241 214.76 752.111 214.76C745.601 214.76 739.741 213.63 734.541 211.36C729.341 209.1 724.951 205.98 721.371 202.01C717.801 198.04 715.061 193.37 713.151 188.01C711.241 182.65 710.291 176.87 710.291 170.67C710.291 164.47 711.241 158.42 713.151 152.98C715.061 147.54 717.801 142.79 721.371 138.74C724.941 134.69 729.331 131.51 734.541 129.21C739.741 126.91 745.601 125.76 752.111 125.76C756.481 125.76 760.711 126.41 764.801 127.72C768.891 129.03 772.581 130.96 775.881 133.5C779.171 136.04 781.901 139.18 784.041 142.91C786.181 146.64 787.491 150.93 787.971 155.78H770.101C768.991 151.01 766.841 147.44 763.671 145.06C760.491 142.68 756.641 141.49 752.111 141.49C747.901 141.49 744.331 142.31 741.391 143.93C738.451 145.56 736.071 147.74 734.241 150.48C732.411 153.22 731.081 156.34 730.251 159.83C729.421 163.33 729.001 166.94 729.001 170.67C729.001 174.4 729.421 177.72 730.251 181.09C731.081 184.47 732.411 187.51 734.241 190.21C736.071 192.91 738.451 195.08 741.391 196.7C744.331 198.33 747.901 199.14 752.111 199.14C758.311 199.14 763.091 197.57 766.471 194.43C769.841 191.29 771.811 186.75 772.371 180.79H753.551V166.85H789.291V212.84H777.381L775.471 203.19C772.131 207.48 768.441 210.48 764.391 212.18L764.381 212.2Z" fill="white"/>
<path d="M846.83 127.789L878.64 212.859H859.22L852.79 193.919H820.98L814.31 212.859H795.49L827.66 127.789H846.84H846.83ZM847.9 179.969L837.18 148.749H836.94L825.86 179.969H847.9Z" fill="white"/>
<path d="M912.351 127.789L932.251 186.289H932.491L951.312 127.789H977.641V212.859H960.131V152.579H959.891L939.042 212.859H924.621L903.771 153.169H903.531V212.859H886.021V127.789H912.351Z" fill="white"/>
<path d="M1034.11 127.79C1038.16 127.79 1041.85 128.15 1045.19 128.86C1048.53 129.57 1051.39 130.75 1053.77 132.37C1056.15 134 1058 136.16 1059.31 138.86C1060.62 141.56 1061.28 144.9 1061.28 148.87C1061.28 153.16 1060.31 156.73 1058.36 159.59C1056.41 162.45 1053.53 164.79 1049.72 166.62C1054.96 168.13 1058.87 170.77 1061.46 174.54C1064.04 178.31 1065.33 182.86 1065.33 188.18C1065.33 192.47 1064.5 196.18 1062.83 199.32C1061.16 202.46 1058.92 205.02 1056.1 207C1053.28 208.99 1050.06 210.45 1046.45 211.41C1042.84 212.36 1039.12 212.84 1035.31 212.84H994.092V127.77H1034.12L1034.11 127.79ZM1031.73 162.22C1035.07 162.22 1037.81 161.43 1039.95 159.84C1042.09 158.25 1043.17 155.67 1043.17 152.1C1043.17 150.12 1042.81 148.49 1042.1 147.22C1041.38 145.95 1040.43 144.96 1039.24 144.24C1038.05 143.52 1036.68 143.03 1035.13 142.75C1033.58 142.47 1031.97 142.33 1030.3 142.33H1012.79V162.23H1031.73V162.22ZM1032.8 198.32C1034.63 198.32 1036.37 198.14 1038.04 197.78C1039.71 197.42 1041.18 196.83 1042.45 195.99C1043.72 195.16 1044.73 194.03 1045.49 192.59C1046.24 191.16 1046.62 189.33 1046.62 187.11C1046.62 182.74 1045.39 179.62 1042.93 177.76C1040.47 175.9 1037.21 174.96 1033.16 174.96H1012.79V198.31H1032.81L1032.8 198.32Z" fill="white"/>
<path d="M1077.12 152.99C1079.03 147.55 1081.77 142.8 1085.34 138.75C1088.91 134.7 1093.3 131.52 1098.51 129.22C1103.71 126.92 1109.57 125.77 1116.08 125.77C1122.59 125.77 1128.55 126.92 1133.71 129.22C1138.87 131.52 1143.24 134.7 1146.82 138.75C1150.39 142.8 1153.13 147.55 1155.04 152.99C1156.95 158.43 1157.9 164.33 1157.9 170.68C1157.9 177.03 1156.95 182.65 1155.04 188.02C1153.13 193.38 1150.39 198.05 1146.82 202.02C1143.25 205.99 1138.88 209.11 1133.71 211.37C1128.55 213.63 1122.67 214.77 1116.08 214.77C1109.49 214.77 1103.71 213.64 1098.51 211.37C1093.31 209.11 1088.92 205.99 1085.34 202.02C1081.77 198.05 1079.03 193.38 1077.12 188.02C1075.21 182.66 1074.26 176.88 1074.26 170.68C1074.26 164.48 1075.21 158.43 1077.12 152.99ZM1094.22 181.1C1095.05 184.48 1096.38 187.52 1098.21 190.22C1100.04 192.92 1102.42 195.09 1105.36 196.71C1108.3 198.34 1111.87 199.15 1116.08 199.15C1120.29 199.15 1123.86 198.34 1126.8 196.71C1129.74 195.08 1132.12 192.92 1133.95 190.22C1135.78 187.52 1137.11 184.48 1137.94 181.1C1138.77 177.73 1139.19 174.25 1139.19 170.68C1139.19 167.11 1138.77 163.33 1137.94 159.84C1137.11 156.35 1135.77 153.23 1133.95 150.49C1132.12 147.75 1129.74 145.57 1126.8 143.94C1123.86 142.31 1120.29 141.5 1116.08 141.5C1111.87 141.5 1108.3 142.32 1105.36 143.94C1102.42 145.57 1100.04 147.75 1098.21 150.49C1096.38 153.23 1095.05 156.35 1094.22 159.84C1093.39 163.34 1092.97 166.95 1092.97 170.68C1092.97 174.41 1093.39 177.73 1094.22 181.1Z" fill="white"/>
<path d="M1216.52 127.789C1220.33 127.789 1223.77 128.409 1226.83 129.639C1229.89 130.869 1232.51 132.559 1234.69 134.699C1236.87 136.849 1238.54 139.329 1239.69 142.149C1240.84 144.969 1241.42 148.009 1241.42 151.269C1241.42 156.269 1240.37 160.599 1238.26 164.259C1236.15 167.909 1232.72 170.689 1227.95 172.599V172.839C1230.25 173.479 1232.16 174.449 1233.67 175.759C1235.18 177.069 1236.41 178.619 1237.36 180.409C1238.31 182.199 1239.01 184.159 1239.44 186.309C1239.88 188.449 1240.17 190.599 1240.33 192.739C1240.41 194.089 1240.49 195.679 1240.57 197.509C1240.65 199.339 1240.79 201.199 1240.99 203.109C1241.19 205.019 1241.51 206.829 1241.94 208.529C1242.38 210.239 1243.03 211.689 1243.91 212.879H1225.2C1224.17 210.179 1223.53 206.959 1223.29 203.229C1223.05 199.499 1222.69 195.919 1222.22 192.509C1221.58 188.059 1220.23 184.809 1218.17 182.739C1216.1 180.669 1212.73 179.639 1208.04 179.639H1189.33V212.879H1170.62V127.809H1216.49L1216.52 127.789ZM1209.85 166.269C1214.14 166.269 1217.36 165.319 1219.5 163.409C1221.65 161.499 1222.72 158.409 1222.72 154.119C1222.72 149.829 1221.65 146.989 1219.5 145.129C1217.36 143.259 1214.14 142.329 1209.85 142.329H1189.36V166.279H1209.85V166.269Z" fill="white"/>
<path d="M1307.06 212.2C1303.01 213.91 1298.92 214.76 1294.79 214.76C1288.28 214.76 1282.42 213.63 1277.22 211.36C1272.02 209.1 1267.63 205.98 1264.05 202.01C1260.48 198.04 1257.74 193.37 1255.83 188.01C1253.92 182.65 1252.97 176.87 1252.97 170.67C1252.97 164.47 1253.92 158.42 1255.83 152.98C1257.74 147.54 1260.48 142.79 1264.05 138.74C1267.62 134.69 1272.01 131.51 1277.22 129.21C1282.42 126.91 1288.28 125.76 1294.79 125.76C1299.16 125.76 1303.39 126.41 1307.48 127.72C1311.57 129.03 1315.26 130.96 1318.56 133.5C1321.85 136.04 1324.58 139.18 1326.72 142.91C1328.86 146.64 1330.17 150.93 1330.65 155.78H1312.78C1311.67 151.01 1309.52 147.44 1306.35 145.06C1303.17 142.68 1299.32 141.49 1294.79 141.49C1290.58 141.49 1287.01 142.31 1284.07 143.93C1281.13 145.56 1278.75 147.74 1276.92 150.48C1275.09 153.22 1273.76 156.34 1272.93 159.83C1272.1 163.33 1271.68 166.94 1271.68 170.67C1271.68 174.4 1272.1 177.72 1272.93 181.09C1273.76 184.47 1275.09 187.51 1276.92 190.21C1278.75 192.91 1281.13 195.08 1284.07 196.7C1287.01 198.33 1290.58 199.14 1294.79 199.14C1300.99 199.14 1305.77 197.57 1309.15 194.43C1312.52 191.29 1314.49 186.75 1315.05 180.79H1296.23V166.85H1331.97V212.84H1320.06L1318.15 203.19C1314.81 207.48 1311.12 210.48 1307.07 212.18L1307.06 212.2Z" fill="white"/>
<path d="M1365.8 127.789V212.859H1347.09V127.789H1365.8Z" fill="white"/>
<path d="M740.32 253.551L760.22 312.051H760.46L779.28 253.551H805.61V338.621H788.1V278.341H787.86L767.01 338.621H752.59L731.74 278.931H731.5V338.621H713.99V253.551H740.32Z" fill="white"/>
<path d="M885.671 253.551V269.281H840.751V287.511H881.971V302.051H840.751V322.901H886.621V338.631H822.051V253.561H885.671V253.551Z" fill="white"/>
<path d="M917.84 253.551L953.34 310.621H953.58V253.551H971.09V338.621H952.39L917 281.671H916.76V338.621H899.25V253.551H917.84Z" fill="white"/>
<path d="M1051.15 253.551V269.281H1006.23V287.511H1047.45V302.051H1006.23V322.901H1052.1V338.631H987.531V253.561H1051.15V253.551Z" fill="white"/>
<path d="M1104.88 269.269H1062.82V253.539H1129.78V268.309L1084.15 322.879H1130.97V338.609H1059.25V323.839L1104.88 269.269Z" fill="white"/>
<path d="M1205.56 253.551V269.281H1160.64V287.511H1201.86V302.051H1160.64V322.901H1206.51V338.631H1141.94V253.561H1205.56V253.551Z" fill="white"/>
<path d="M1233.44 317.65C1234.47 319.64 1235.84 321.24 1237.55 322.48C1239.26 323.71 1241.26 324.62 1243.57 325.22C1245.87 325.81 1248.26 326.11 1250.72 326.11C1252.39 326.11 1254.18 325.97 1256.08 325.69C1257.98 325.41 1259.77 324.88 1261.44 324.08C1263.11 323.29 1264.5 322.19 1265.61 320.8C1266.72 319.41 1267.28 317.64 1267.28 315.5C1267.28 313.2 1266.54 311.33 1265.08 309.9C1263.61 308.47 1261.68 307.28 1259.3 306.33C1256.92 305.38 1254.22 304.54 1251.2 303.83C1248.18 303.12 1245.12 302.32 1242.03 301.45C1238.85 300.66 1235.75 299.68 1232.74 298.53C1229.72 297.38 1227.02 295.89 1224.64 294.06C1222.26 292.23 1220.33 289.95 1218.86 287.21C1217.39 284.47 1216.66 281.16 1216.66 277.26C1216.66 272.89 1217.59 269.1 1219.46 265.88C1221.33 262.66 1223.77 259.98 1226.79 257.84C1229.81 255.7 1233.22 254.11 1237.04 253.07C1240.85 252.04 1244.66 251.52 1248.48 251.52C1252.93 251.52 1257.2 252.02 1261.29 253.01C1265.38 254.01 1269.01 255.61 1272.19 257.84C1275.37 260.07 1277.89 262.9 1279.76 266.36C1281.62 269.81 1282.56 274.01 1282.56 278.93H1264.45C1264.29 276.39 1263.75 274.28 1262.84 272.62C1261.93 270.95 1260.71 269.64 1259.21 268.69C1257.7 267.74 1255.97 267.06 1254.03 266.66C1252.08 266.26 1249.96 266.07 1247.66 266.07C1246.15 266.07 1244.64 266.23 1243.13 266.55C1241.62 266.87 1240.25 267.42 1239.02 268.22C1237.79 269.02 1236.77 270.01 1235.98 271.2C1235.18 272.39 1234.79 273.9 1234.79 275.73C1234.79 277.4 1235.11 278.75 1235.74 279.78C1236.38 280.81 1237.63 281.77 1239.49 282.64C1241.35 283.51 1243.94 284.39 1247.23 285.26C1250.52 286.13 1254.83 287.25 1260.16 288.6C1261.75 288.92 1263.95 289.49 1266.77 290.33C1269.59 291.16 1272.39 292.5 1275.17 294.32C1277.95 296.15 1280.35 298.59 1282.38 301.65C1284.41 304.71 1285.42 308.62 1285.42 313.39C1285.42 317.28 1284.66 320.9 1283.16 324.23C1281.65 327.57 1279.41 330.44 1276.43 332.87C1273.45 335.29 1269.76 337.18 1265.35 338.53C1260.94 339.88 1255.84 340.56 1250.04 340.56C1245.35 340.56 1240.81 339.98 1236.4 338.83C1231.99 337.68 1228.1 335.87 1224.72 333.41C1221.34 330.95 1218.66 327.81 1216.68 324C1214.69 320.19 1213.74 315.66 1213.82 310.42H1231.93C1231.93 313.28 1232.45 315.7 1233.48 317.69L1233.44 317.65Z" fill="white"/>
<path d="M1210.93 63.3598C1212.43 60.8298 1213.4 58.1598 1213.84 55.3498C1214.27 52.5398 1214.49 49.6798 1214.49 46.7498H1221.61C1221.45 50.6298 1220.96 54.4798 1220.12 58.3198C1219.29 62.1598 1217.8 65.7398 1215.66 69.0598L1229.55 85.4298H1219.94L1211.62 75.3498C1207.89 79.7798 1203.89 82.9398 1199.61 84.8398C1195.33 86.7398 1190.34 87.6898 1184.64 87.6898C1180.91 87.6898 1177.43 87.0798 1174.18 85.8498C1170.93 84.6198 1168.1 82.8998 1165.68 80.6898C1163.26 78.4798 1161.36 75.8098 1159.98 72.6798C1158.59 69.5598 1157.9 66.0998 1157.9 62.2998C1157.9 59.1398 1158.45 56.2098 1159.56 53.5198C1160.67 50.8298 1162.15 48.3798 1164.01 46.1598C1165.87 43.9498 1168.02 41.9898 1170.48 40.2898C1172.93 38.5898 1175.54 37.1098 1178.31 35.8398C1176.01 33.1498 1173.92 30.2498 1172.02 27.1198C1170.12 23.9998 1169.17 20.5398 1169.17 16.7398C1169.17 14.0498 1169.68 11.6598 1170.71 9.55977C1171.74 7.46977 1173.12 5.69977 1174.86 4.27977C1176.6 2.85977 1178.64 1.78977 1180.97 1.07977C1183.3 0.369765 1185.77 0.00976562 1188.39 0.00976562C1191.01 0.00976562 1193.41 0.449769 1195.63 1.30977C1197.84 2.17977 1199.74 3.36977 1201.33 4.86977C1202.91 6.36977 1204.14 8.12977 1205.01 10.1498C1205.88 12.1698 1206.31 14.2798 1206.31 16.4998C1206.31 19.3498 1205.85 21.8198 1204.94 23.9198C1204.03 26.0198 1202.81 27.8798 1201.26 29.4998C1199.72 31.1198 1197.92 32.5998 1195.86 33.9498C1193.8 35.2998 1191.67 36.6398 1189.45 37.9798L1210.92 63.3698L1210.93 63.3598ZM1182.58 40.9398C1180.21 42.0498 1178.01 43.3698 1176 44.9098C1173.98 46.4498 1172.24 48.1698 1170.78 50.0698C1169.32 51.9698 1168.15 54.0098 1167.28 56.1798C1166.41 58.3598 1165.98 60.5898 1165.98 62.8798C1165.98 65.7298 1166.47 68.2798 1167.46 70.5298C1168.45 72.7798 1169.79 74.6998 1171.49 76.2798C1173.19 77.8598 1175.21 79.0898 1177.54 79.9598C1179.87 80.8298 1182.42 81.2698 1185.19 81.2698C1189.78 81.2698 1193.83 80.2198 1197.35 78.1298C1200.87 76.0398 1204.05 73.2898 1206.9 69.8798L1182.58 40.9298V40.9398ZM1197.76 21.3598C1198.47 19.7798 1198.77 18.0998 1198.65 16.3198C1198.53 14.5398 1198.02 12.9198 1197.11 11.4598C1196.2 9.99977 1194.95 8.78977 1193.37 7.83977C1191.79 6.88977 1189.89 6.41977 1187.67 6.41977C1186.17 6.41977 1184.74 6.65977 1183.4 7.12977C1182.05 7.59977 1180.85 8.27977 1179.78 9.14977C1178.71 10.0198 1177.86 11.0898 1177.23 12.3498C1176.6 13.6198 1176.28 15.0398 1176.28 16.6198C1176.28 17.8898 1176.59 19.2698 1177.23 20.7698C1177.86 22.2698 1178.63 23.7398 1179.54 25.1598C1180.45 26.5798 1181.42 27.9498 1182.45 29.2498C1183.48 30.5498 1184.39 31.6798 1185.18 32.6298C1187.55 31.2098 1189.94 29.6498 1192.36 27.9398C1194.77 26.2398 1196.57 24.0498 1197.76 21.3598Z" fill="white"/>
</svg>
