<svg width="63" height="46" viewBox="0 0 63 46" fill="none" xmlns="http://www.w3.org/2000/svg">
<path d="M1.92493 2.8722H1.92683V2.82144H62.9982V0.6875H0V45.3839H1.92493V2.8722Z" fill="white"/>
<path d="M52.9024 26.875L56.5968 35.2649L60.1635 26.875H62.9999V25.4222L62.9675 4.41602H3.57031V45.3817L62.9999 45.3854V39.6002H58.6523V39.2541H59.0757C59.4666 39.2541 59.7764 39.1867 60.0062 39.0565C60.1702 38.9679 60.2979 38.8193 60.3971 38.608C60.4667 38.4557 60.5029 38.0634 60.5029 37.4238V27.9918L55.4613 39.6011H55.2277L50.1098 28.0767V37.0389C50.1098 37.6647 50.128 38.0496 50.1575 38.1945C50.2452 38.5055 50.4235 38.7603 50.7048 38.9578C50.986 39.1553 51.4274 39.255 52.03 39.255V39.6011H47.5328V39.255H47.6682C47.9599 39.2624 48.2307 39.2162 48.4824 39.1175C48.7341 39.0224 48.9238 38.8913 49.0554 38.7289C49.1831 38.5664 49.2851 38.3366 49.3547 38.0431C49.3652 37.9757 49.3729 37.6582 49.3729 37.085V29.0348C49.3729 28.3915 49.3404 27.989 49.267 27.8294C49.1974 27.6706 49.0516 27.5294 48.8323 27.4057C48.6092 27.2857 48.3174 27.2257 47.9485 27.2257H47.5328V26.8759H52.9024V26.875ZM33.7771 39.6011H26.9144V39.255H27.3378C27.7286 39.255 28.0385 39.1876 28.2683 39.0575C28.4323 38.9689 28.56 38.8203 28.6554 38.6089C28.7288 38.4566 28.765 38.0643 28.765 37.4247V27.9927L23.7234 39.602H23.4898L18.3719 28.0776V37.0398C18.3719 37.6656 18.39 38.0505 18.4196 38.1954C18.5035 38.5064 18.6856 38.7612 18.9669 38.9587C19.2481 39.1562 19.6895 39.2559 20.2921 39.2559V39.602H15.7949V39.2559H15.9303C16.222 39.2633 16.4928 39.2171 16.7445 39.1184C16.9962 39.0233 17.1859 38.8922 17.3175 38.7298C17.4452 38.5674 17.5472 38.3375 17.6168 38.044C17.6273 37.9766 17.6349 37.6591 17.6349 37.086V29.0357C17.6349 28.3924 17.5987 27.99 17.5291 27.8303C17.4595 27.6715 17.3136 27.5303 17.0944 27.4066C16.8713 27.2866 16.5795 27.2266 16.2106 27.2266H15.7939V26.8768H21.1635L24.8579 35.2668L28.4246 26.8768H33.7761V27.2266H33.349C32.9581 27.2266 32.652 27.2903 32.4184 27.4214C32.2545 27.51 32.1267 27.6586 32.0314 27.8635C31.958 28.0158 31.9217 28.4044 31.9217 29.0366V37.4265C31.9217 38.0763 31.958 38.4834 32.0314 38.6458C32.101 38.8083 32.2468 38.9532 32.4661 39.0732C32.6854 39.1968 32.981 39.2568 33.3499 39.2568H33.7771V39.6029V39.6011ZM47.7988 34.2607V34.6068C47.3135 34.6382 46.9779 34.7019 46.7872 34.8016C46.5937 34.8966 46.4478 35.06 46.3458 35.2861C46.2876 35.4024 46.2581 35.696 46.2581 36.1593V38.8027C45.4181 39.1664 44.5458 39.4387 43.6372 39.626C42.7286 39.8097 41.7866 39.902 40.8113 39.902C39.5633 39.902 38.526 39.7395 37.7051 39.411C36.8804 39.0824 36.1539 38.6513 35.5218 38.1142C34.8935 37.5807 34.4015 36.9761 34.0431 36.3079C33.5902 35.4458 33.3642 34.4776 33.3642 33.407C33.3642 31.4955 34.0612 29.8765 35.4484 28.5585C36.8394 27.2368 38.5879 26.5759 40.694 26.5759C41.3442 26.5759 41.9353 26.6258 42.4569 26.7282C42.7419 26.7781 43.2015 26.9193 43.8364 27.1556C44.4752 27.3891 44.8509 27.5054 44.9681 27.5054C45.1474 27.5054 45.3152 27.4417 45.4715 27.3143C45.625 27.1833 45.7671 26.9433 45.8986 26.5861H46.2562V31.0709H45.8986C45.4639 29.8442 44.8146 28.9148 43.9489 28.2752C43.0842 27.6355 42.1346 27.3171 41.1087 27.3171C40.0829 27.3171 39.3087 27.5857 38.6556 28.1192C38.0025 28.6564 37.542 29.4021 37.2684 30.3565C36.9986 31.3145 36.8632 32.2966 36.8632 33.3036C36.8632 34.5228 37.0129 35.5935 37.3085 36.5128C37.6078 37.4349 38.0864 38.1105 38.7472 38.5415C39.4117 38.9725 40.1963 39.1885 41.1087 39.1885C41.4262 39.1885 41.7513 39.1571 42.0831 39.0898C42.4149 39.0261 42.7553 38.931 43.1052 38.8036V36.1602C43.1052 35.6581 43.0689 35.3332 42.9993 35.1883C42.9259 35.0397 42.7801 34.9096 42.5579 34.7887C42.3348 34.6687 42.065 34.6087 41.7475 34.6087H41.4081V34.2626H47.7969L47.7988 34.2607Z" fill="white"/>
</svg>
