<svg width="656" height="485" viewBox="0 0 656 485" fill="none" xmlns="http://www.w3.org/2000/svg">
<g opacity="0.5">
<path d="M36.4018 467.97H17.9918L14.7618 475.48C13.9618 477.33 13.5718 478.71 13.5718 479.62C13.5718 480.35 13.9118 480.98 14.6018 481.53C15.2918 482.08 16.7818 482.44 19.0718 482.6V483.9H4.0918V482.6C6.0818 482.25 7.36178 481.79 7.95178 481.23C9.14178 480.11 10.4618 477.83 11.9118 474.39L28.6418 435.25H29.8718L46.4218 474.81C47.7518 477.99 48.9618 480.05 50.0518 481C51.1418 481.95 52.6518 482.48 54.5918 482.6V483.9H35.8318V482.6C37.7218 482.51 39.0018 482.19 39.6718 481.65C40.3418 481.11 40.6718 480.46 40.6718 479.69C40.6718 478.66 40.2018 477.04 39.2718 474.82L36.3918 467.98L36.4018 467.97ZM35.4218 465.37L27.3518 446.15L19.0718 465.37H35.4118H35.4218Z" fill="white"/>
<path d="M58.4316 483.89V482.59H60.2216C62.2316 482.59 63.6616 481.95 64.5016 480.66C65.0116 479.89 65.2716 478.16 65.2716 475.47V444.75C65.2716 441.78 64.9416 439.92 64.2916 439.17C63.3816 438.14 62.0216 437.63 60.2216 437.63H58.4316V436.33H77.7916C84.9016 436.33 90.3016 437.14 94.0116 438.75C97.7216 440.36 100.702 443.05 102.952 446.82C105.212 450.59 106.332 454.93 106.332 459.87C106.332 466.49 104.322 472.02 100.302 476.46C95.7916 481.42 88.9116 483.89 79.6816 483.89H58.4316ZM72.0016 480.45C74.9716 481.11 77.4616 481.43 79.4716 481.43C84.8916 481.43 89.4016 479.52 92.9716 475.71C96.5516 471.9 98.3416 466.73 98.3416 460.21C98.3416 453.69 96.5516 448.46 92.9716 444.67C89.3916 440.88 84.8016 438.99 79.1916 438.99C77.0916 438.99 74.6916 439.33 72.0016 440.01V480.44V480.45Z" fill="white"/>
<path d="M161.862 436.331V437.631C160.182 437.931 158.902 438.471 158.042 439.241C156.802 440.391 155.702 442.141 154.742 444.501L138.152 484.971H136.852L119.032 443.971C118.122 441.871 117.482 440.581 117.102 440.111C116.522 439.391 115.802 438.821 114.942 438.411C114.092 438.001 112.932 437.741 111.492 437.621V436.321H130.922V437.621C128.722 437.831 127.302 438.201 126.642 438.741C125.992 439.281 125.662 439.971 125.662 440.811C125.662 441.981 126.202 443.801 127.272 446.281L139.372 474.161L150.592 446.631C151.692 443.921 152.242 442.041 152.242 440.981C152.242 440.301 151.902 439.651 151.222 439.031C150.542 438.411 149.402 437.971 147.782 437.721C147.662 437.701 147.462 437.661 147.182 437.611V436.311H161.842L161.862 436.331Z" fill="white"/>
<path d="M190.802 435.25C196.972 435.25 202.322 437.59 206.842 442.28C211.362 446.97 213.632 452.82 213.632 459.83C213.632 466.84 211.352 473.05 206.792 477.82C202.232 482.59 196.712 484.97 190.242 484.97C183.772 484.97 178.202 482.64 173.742 477.99C169.292 473.34 167.062 467.32 167.062 459.93C167.062 452.54 169.632 446.22 174.772 441.45C179.242 437.31 184.582 435.24 190.802 435.24V435.25ZM190.132 437.81C185.872 437.81 182.462 439.39 179.892 442.54C176.692 446.47 175.092 452.22 175.092 459.79C175.092 467.36 176.753 473.53 180.073 477.71C182.623 480.89 185.982 482.48 190.172 482.48C194.632 482.48 198.322 480.74 201.232 477.26C204.142 473.78 205.602 468.28 205.602 460.78C205.602 452.64 204.002 446.58 200.802 442.58C198.232 439.4 194.672 437.81 190.142 437.81H190.132Z" fill="white"/>
<path d="M261.432 435.25L262.521 451.42H261.432C259.982 446.58 257.911 443.1 255.221 440.97C252.531 438.84 249.312 437.78 245.542 437.78C242.382 437.78 239.531 438.58 236.981 440.18C234.431 441.78 232.432 444.34 230.962 447.84C229.502 451.35 228.771 455.71 228.771 460.92C228.771 465.22 229.461 468.95 230.841 472.11C232.221 475.27 234.292 477.68 237.062 479.37C239.832 481.05 242.992 481.89 246.552 481.89C249.632 481.89 252.361 481.23 254.721 479.91C257.081 478.59 259.681 475.96 262.511 472.04L263.601 472.74C261.221 476.97 258.431 480.07 255.251 482.03C252.071 483.99 248.292 484.97 243.922 484.97C236.042 484.97 229.941 482.05 225.611 476.2C222.381 471.85 220.771 466.73 220.771 460.84C220.771 456.09 221.832 451.73 223.962 447.76C226.092 443.79 229.021 440.71 232.741 438.52C236.471 436.33 240.542 435.24 244.962 435.24C248.402 435.24 251.791 436.08 255.131 437.76C256.111 438.28 256.811 438.53 257.231 438.53C257.861 438.53 258.411 438.31 258.881 437.86C259.491 437.23 259.922 436.35 260.182 435.23H261.411L261.432 435.25Z" fill="white"/>
<path d="M300.751 467.97H282.341L279.111 475.48C278.311 477.33 277.921 478.71 277.921 479.62C277.921 480.35 278.261 480.98 278.951 481.53C279.641 482.08 281.131 482.44 283.421 482.6V483.9H268.441V482.6C270.431 482.25 271.711 481.79 272.301 481.23C273.491 480.11 274.811 477.83 276.261 474.39L292.991 435.25H294.221L310.771 474.81C312.101 477.99 313.311 480.05 314.401 481C315.491 481.95 317.001 482.48 318.941 482.6V483.9H300.181V482.6C302.071 482.51 303.351 482.19 304.021 481.65C304.691 481.11 305.021 480.46 305.021 479.69C305.021 478.66 304.551 477.04 303.621 474.82L300.741 467.98L300.751 467.97ZM299.771 465.37L291.701 446.15L283.421 465.37H299.761H299.771Z" fill="white"/>
<path d="M364.803 435.25L365.893 451.42H364.803C363.353 446.58 361.283 443.1 358.593 440.97C355.903 438.84 352.683 437.78 348.913 437.78C345.753 437.78 342.903 438.58 340.353 440.18C337.803 441.78 335.803 444.34 334.333 447.84C332.873 451.35 332.143 455.71 332.143 460.92C332.143 465.22 332.833 468.95 334.213 472.11C335.593 475.27 337.663 477.68 340.433 479.37C343.203 481.05 346.363 481.89 349.923 481.89C353.003 481.89 355.733 481.23 358.093 479.91C360.453 478.59 363.053 475.96 365.883 472.04L366.973 472.74C364.593 476.97 361.803 480.07 358.623 482.03C355.443 483.99 351.663 484.97 347.293 484.97C339.413 484.97 333.313 482.05 328.983 476.2C325.753 471.85 324.143 466.73 324.143 460.84C324.143 456.09 325.203 451.73 327.333 447.76C329.463 443.79 332.393 440.71 336.113 438.52C339.843 436.33 343.913 435.24 348.333 435.24C351.773 435.24 355.163 436.08 358.503 437.76C359.483 438.28 360.183 438.53 360.603 438.53C361.233 438.53 361.783 438.31 362.253 437.86C362.863 437.23 363.293 436.35 363.553 435.23H364.783L364.803 435.25Z" fill="white"/>
<path d="M393.421 482.59V483.89H373.051V482.59H374.731C376.691 482.59 378.121 482.02 379.011 480.87C379.571 480.12 379.851 478.32 379.851 475.47V444.75C379.851 442.34 379.701 440.75 379.391 439.98C379.161 439.4 378.681 438.89 377.951 438.47C376.921 437.91 375.851 437.63 374.721 437.63H373.041V436.33H393.411V437.63H391.691C389.751 437.63 388.331 438.2 387.451 439.35C386.871 440.1 386.571 441.9 386.571 444.75V475.47C386.571 477.88 386.721 479.47 387.021 480.24C387.251 480.82 387.741 481.33 388.491 481.75C389.491 482.31 390.561 482.59 391.681 482.59H393.401H393.421Z" fill="white"/>
<path d="M429.832 467.97H411.422L408.192 475.48C407.392 477.33 407.001 478.71 407.001 479.62C407.001 480.35 407.341 480.98 408.031 481.53C408.721 482.08 410.211 482.44 412.501 482.6V483.9H397.521V482.6C399.511 482.25 400.791 481.79 401.381 481.23C402.571 480.11 403.891 477.83 405.341 474.39L422.072 435.25H423.302L439.851 474.81C441.181 477.99 442.391 480.05 443.481 481C444.571 481.95 446.081 482.48 448.021 482.6V483.9H429.261V482.6C431.151 482.51 432.431 482.19 433.101 481.65C433.771 481.11 434.101 480.46 434.101 479.69C434.101 478.66 433.632 477.04 432.702 474.82L429.822 467.98L429.832 467.97ZM428.851 465.37L420.781 446.15L412.501 465.37H428.841H428.851Z" fill="white"/>
</g>
<path d="M606.921 378.67H1.38086V387.87H606.921V378.67Z" fill="white"/>
<path d="M30.3202 2.0293L50.2202 60.5293H50.4602L69.2802 2.0293H95.6102V87.0993H78.1002V26.8193H77.8602L57.0102 87.0993H42.5902L21.7402 27.4093H21.5002V87.0993H3.99023V2.0293H30.3202Z" fill="white"/>
<path d="M154.461 2.0293L186.271 87.0993H166.851L160.421 68.1593H128.611L121.941 87.0993H103.121L135.291 2.0293H154.471H154.461ZM155.531 54.2093L144.811 22.9893H144.571L133.491 54.2093H155.531Z" fill="white"/>
<path d="M176.031 17.7593V2.0293H245.731V17.7593H220.231V87.0993H201.531V17.7593H176.031Z" fill="white"/>
<path d="M254.661 27.2298C256.571 21.7898 259.311 17.0398 262.881 12.9898C266.451 8.93977 270.841 5.75977 276.051 3.45977C281.251 1.15977 287.111 0.00976562 293.621 0.00976562C300.131 0.00976562 306.091 1.15977 311.251 3.45977C316.411 5.75977 320.781 8.93977 324.361 12.9898C327.931 17.0398 330.671 21.7898 332.581 27.2298C334.491 32.6698 335.441 38.5698 335.441 44.9198C335.441 51.2698 334.491 56.8898 332.581 62.2598C330.671 67.6198 327.931 72.2898 324.361 76.2598C320.791 80.2298 316.421 83.3498 311.251 85.6098C306.091 87.8698 300.211 89.0098 293.621 89.0098C287.031 89.0098 281.251 87.8798 276.051 85.6098C270.851 83.3498 266.461 80.2298 262.881 76.2598C259.311 72.2898 256.571 67.6198 254.661 62.2598C252.751 56.8998 251.801 51.1198 251.801 44.9198C251.801 38.7198 252.751 32.6698 254.661 27.2298ZM271.751 55.3398C272.581 58.7198 273.911 61.7598 275.741 64.4598C277.571 67.1598 279.951 69.3298 282.891 70.9498C285.831 72.5798 289.401 73.3898 293.611 73.3898C297.821 73.3898 301.391 72.5798 304.331 70.9498C307.271 69.3198 309.651 67.1598 311.481 64.4598C313.311 61.7598 314.641 58.7198 315.471 55.3398C316.301 51.9698 316.721 48.4898 316.721 44.9198C316.721 41.3498 316.301 37.5698 315.471 34.0798C314.641 30.5898 313.301 27.4698 311.481 24.7298C309.651 21.9898 307.271 19.8098 304.331 18.1798C301.391 16.5498 297.821 15.7398 293.611 15.7398C289.401 15.7398 285.831 16.5598 282.891 18.1798C279.951 19.8098 277.571 21.9898 275.741 24.7298C273.911 27.4698 272.581 30.5898 271.751 34.0798C270.921 37.5798 270.501 41.1898 270.501 44.9198C270.501 48.6498 270.921 51.9698 271.751 55.3398Z" fill="white"/>
<path d="M362.48 66.13C363.51 68.12 364.88 69.72 366.59 70.96C368.3 72.19 370.3 73.1 372.61 73.7C374.91 74.29 377.3 74.59 379.76 74.59C381.43 74.59 383.22 74.45 385.12 74.17C387.02 73.89 388.81 73.36 390.48 72.56C392.15 71.77 393.54 70.67 394.65 69.28C395.76 67.89 396.32 66.12 396.32 63.98C396.32 61.68 395.58 59.81 394.12 58.38C392.65 56.95 390.72 55.76 388.34 54.81C385.96 53.86 383.26 53.02 380.24 52.31C377.22 51.6 374.16 50.8 371.07 49.93C367.89 49.14 364.79 48.16 361.78 47.01C358.76 45.86 356.06 44.37 353.68 42.54C351.3 40.71 349.37 38.43 347.9 35.69C346.43 32.95 345.7 29.64 345.7 25.74C345.7 21.37 346.63 17.58 348.5 14.36C350.37 11.14 352.81 8.46 355.83 6.32C358.85 4.18 362.26 2.59 366.08 1.55C369.89 0.519995 373.7 0 377.52 0C381.97 0 386.24 0.499998 390.33 1.49C394.42 2.49 398.05 4.09 401.23 6.32C404.41 8.55 406.93 11.38 408.8 14.84C410.66 18.29 411.6 22.49 411.6 27.41H393.49C393.33 24.87 392.79 22.76 391.88 21.1C390.97 19.43 389.75 18.12 388.25 17.17C386.74 16.22 385.01 15.54 383.07 15.14C381.12 14.74 379 14.55 376.7 14.55C375.19 14.55 373.68 14.71 372.17 15.03C370.66 15.35 369.29 15.9 368.06 16.7C366.83 17.5 365.81 18.49 365.02 19.68C364.22 20.87 363.83 22.38 363.83 24.21C363.83 25.88 364.15 27.23 364.78 28.26C365.42 29.29 366.67 30.25 368.53 31.12C370.39 31.99 372.98 32.87 376.27 33.74C379.56 34.61 383.87 35.73 389.2 37.08C390.79 37.4 392.99 37.97 395.81 38.81C398.63 39.64 401.43 40.98 404.21 42.8C406.99 44.63 409.39 47.07 411.42 50.13C413.45 53.19 414.46 57.1 414.46 61.87C414.46 65.76 413.7 69.38 412.2 72.71C410.69 76.05 408.45 78.92 405.47 81.35C402.49 83.77 398.8 85.66 394.39 87.01C389.98 88.36 384.88 89.04 379.08 89.04C374.39 89.04 369.85 88.46 365.44 87.31C361.03 86.16 357.14 84.35 353.76 81.89C350.38 79.43 347.7 76.29 345.72 72.48C343.73 68.67 342.78 64.14 342.86 58.9H360.97C360.97 61.76 361.49 64.18 362.52 66.17L362.48 66.13Z" fill="white"/>
<path d="M54.381 212.2C50.331 213.91 46.241 214.76 42.111 214.76C35.601 214.76 29.741 213.63 24.541 211.36C19.341 209.1 14.951 205.98 11.371 202.01C7.80097 198.04 5.061 193.37 3.151 188.01C1.241 182.65 0.291016 176.87 0.291016 170.67C0.291016 164.47 1.241 158.42 3.151 152.98C5.061 147.54 7.80097 142.79 11.371 138.74C14.941 134.69 19.331 131.51 24.541 129.21C29.741 126.91 35.601 125.76 42.111 125.76C46.481 125.76 50.711 126.41 54.801 127.72C58.891 129.03 62.581 130.96 65.881 133.5C69.171 136.04 71.901 139.18 74.041 142.91C76.181 146.64 77.491 150.93 77.971 155.78H60.101C58.991 151.01 56.841 147.44 53.671 145.06C50.491 142.68 46.641 141.49 42.111 141.49C37.901 141.49 34.331 142.31 31.391 143.93C28.451 145.56 26.071 147.74 24.241 150.48C22.411 153.22 21.081 156.34 20.251 159.83C19.421 163.33 19.001 166.94 19.001 170.67C19.001 174.4 19.421 177.72 20.251 181.09C21.081 184.47 22.411 187.51 24.241 190.21C26.071 192.91 28.451 195.08 31.391 196.7C34.331 198.33 37.901 199.14 42.111 199.14C48.311 199.14 53.091 197.57 56.471 194.43C59.841 191.29 61.811 186.75 62.371 180.79H43.551V166.85H79.291V212.84H67.381L65.471 203.19C62.131 207.48 58.441 210.48 54.391 212.18L54.381 212.2Z" fill="white"/>
<path d="M136.83 127.789L168.64 212.859H149.22L142.79 193.919H110.98L104.31 212.859H85.4902L117.66 127.789H136.84H136.83ZM137.9 179.969L127.18 148.749H126.94L115.86 179.969H137.9Z" fill="white"/>
<path d="M202.351 127.789L222.251 186.289H222.491L241.312 127.789H267.641V212.859H250.131V152.579H249.891L229.042 212.859H214.621L193.771 153.169H193.531V212.859H176.021V127.789H202.351Z" fill="white"/>
<path d="M324.112 127.79C328.162 127.79 331.852 128.15 335.192 128.86C338.532 129.57 341.392 130.75 343.772 132.37C346.152 134 348.002 136.16 349.312 138.86C350.622 141.56 351.282 144.9 351.282 148.87C351.282 153.16 350.312 156.73 348.362 159.59C346.412 162.45 343.532 164.79 339.722 166.62C344.962 168.13 348.872 170.77 351.462 174.54C354.042 178.31 355.332 182.86 355.332 188.18C355.332 192.47 354.502 196.18 352.832 199.32C351.162 202.46 348.922 205.02 346.102 207C343.282 208.99 340.062 210.45 336.452 211.41C332.842 212.36 329.122 212.84 325.312 212.84H284.092V127.77H324.122L324.112 127.79ZM321.732 162.22C325.072 162.22 327.812 161.43 329.952 159.84C332.092 158.25 333.172 155.67 333.172 152.1C333.172 150.12 332.812 148.49 332.102 147.22C331.382 145.95 330.432 144.96 329.242 144.24C328.052 143.52 326.682 143.03 325.132 142.75C323.582 142.47 321.972 142.33 320.302 142.33H302.792V162.23H321.732V162.22ZM322.802 198.32C324.632 198.32 326.372 198.14 328.042 197.78C329.712 197.42 331.182 196.83 332.452 195.99C333.722 195.16 334.732 194.03 335.492 192.59C336.242 191.16 336.622 189.33 336.622 187.11C336.622 182.74 335.392 179.62 332.932 177.76C330.472 175.9 327.212 174.96 323.162 174.96H302.792V198.31H322.812L322.802 198.32Z" fill="white"/>
<path d="M367.122 152.99C369.032 147.55 371.772 142.8 375.342 138.75C378.912 134.7 383.302 131.52 388.512 129.22C393.712 126.92 399.572 125.77 406.082 125.77C412.592 125.77 418.552 126.92 423.712 129.22C428.872 131.52 433.242 134.7 436.822 138.75C440.392 142.8 443.132 147.55 445.042 152.99C446.952 158.43 447.902 164.33 447.902 170.68C447.902 177.03 446.952 182.65 445.042 188.02C443.132 193.38 440.392 198.05 436.822 202.02C433.252 205.99 428.882 209.11 423.712 211.37C418.552 213.63 412.672 214.77 406.082 214.77C399.492 214.77 393.712 213.64 388.512 211.37C383.312 209.11 378.922 205.99 375.342 202.02C371.772 198.05 369.032 193.38 367.122 188.02C365.212 182.66 364.262 176.88 364.262 170.68C364.262 164.48 365.212 158.43 367.122 152.99ZM384.222 181.1C385.052 184.48 386.382 187.52 388.212 190.22C390.042 192.92 392.422 195.09 395.362 196.71C398.302 198.34 401.872 199.15 406.082 199.15C410.292 199.15 413.862 198.34 416.802 196.71C419.742 195.08 422.122 192.92 423.952 190.22C425.782 187.52 427.112 184.48 427.942 181.1C428.772 177.73 429.192 174.25 429.192 170.68C429.192 167.11 428.772 163.33 427.942 159.84C427.112 156.35 425.772 153.23 423.952 150.49C422.122 147.75 419.742 145.57 416.802 143.94C413.862 142.31 410.292 141.5 406.082 141.5C401.872 141.5 398.302 142.32 395.362 143.94C392.422 145.57 390.042 147.75 388.212 150.49C386.382 153.23 385.052 156.35 384.222 159.84C383.392 163.34 382.972 166.95 382.972 170.68C382.972 174.41 383.392 177.73 384.222 181.1Z" fill="white"/>
<path d="M506.521 127.789C510.331 127.789 513.771 128.409 516.831 129.639C519.891 130.869 522.511 132.559 524.691 134.699C526.871 136.849 528.541 139.329 529.691 142.149C530.841 144.969 531.421 148.009 531.421 151.269C531.421 156.269 530.371 160.599 528.261 164.259C526.151 167.909 522.721 170.689 517.951 172.599V172.839C520.251 173.479 522.161 174.449 523.671 175.759C525.181 177.069 526.411 178.619 527.361 180.409C528.311 182.199 529.011 184.159 529.441 186.309C529.881 188.449 530.171 190.599 530.331 192.739C530.411 194.089 530.491 195.679 530.571 197.509C530.651 199.339 530.791 201.199 530.991 203.109C531.191 205.019 531.511 206.829 531.941 208.529C532.381 210.239 533.031 211.689 533.911 212.879H515.201C514.171 210.179 513.531 206.959 513.291 203.229C513.051 199.499 512.691 195.919 512.221 192.509C511.581 188.059 510.231 184.809 508.171 182.739C506.101 180.669 502.731 179.639 498.041 179.639H479.331V212.879H460.621V127.809H506.491L506.521 127.789ZM499.851 166.269C504.141 166.269 507.361 165.319 509.501 163.409C511.651 161.499 512.721 158.409 512.721 154.119C512.721 149.829 511.651 146.989 509.501 145.129C507.361 143.259 504.141 142.329 499.851 142.329H479.361V166.279H499.851V166.269Z" fill="white"/>
<path d="M597.061 212.2C593.011 213.91 588.921 214.76 584.791 214.76C578.281 214.76 572.421 213.63 567.221 211.36C562.021 209.1 557.631 205.98 554.051 202.01C550.481 198.04 547.741 193.37 545.831 188.01C543.921 182.65 542.971 176.87 542.971 170.67C542.971 164.47 543.921 158.42 545.831 152.98C547.741 147.54 550.481 142.79 554.051 138.74C557.621 134.69 562.011 131.51 567.221 129.21C572.421 126.91 578.281 125.76 584.791 125.76C589.161 125.76 593.391 126.41 597.481 127.72C601.571 129.03 605.261 130.96 608.561 133.5C611.851 136.04 614.581 139.18 616.721 142.91C618.861 146.64 620.171 150.93 620.651 155.78H602.781C601.671 151.01 599.521 147.44 596.351 145.06C593.171 142.68 589.321 141.49 584.791 141.49C580.581 141.49 577.011 142.31 574.071 143.93C571.131 145.56 568.751 147.74 566.921 150.48C565.091 153.22 563.761 156.34 562.931 159.83C562.101 163.33 561.681 166.94 561.681 170.67C561.681 174.4 562.101 177.72 562.931 181.09C563.761 184.47 565.091 187.51 566.921 190.21C568.751 192.91 571.131 195.08 574.071 196.7C577.011 198.33 580.581 199.14 584.791 199.14C590.991 199.14 595.771 197.57 599.151 194.43C602.521 191.29 604.491 186.75 605.051 180.79H586.231V166.85H621.971V212.84H610.061L608.151 203.19C604.811 207.48 601.121 210.48 597.071 212.18L597.061 212.2Z" fill="white"/>
<path d="M655.802 127.789V212.859H637.092V127.789H655.802Z" fill="white"/>
<path d="M30.3202 253.551L50.2202 312.051H50.4602L69.2802 253.551H95.6102V338.621H78.1002V278.341H77.8602L57.0102 338.621H42.5902L21.7402 278.931H21.5002V338.621H3.99023V253.551H30.3202Z" fill="white"/>
<path d="M175.671 253.551V269.281H130.751V287.511H171.971V302.051H130.751V322.901H176.621V338.631H112.051V253.561H175.671V253.551Z" fill="white"/>
<path d="M207.84 253.551L243.34 310.621H243.58V253.551H261.09V338.621H242.39L207 281.671H206.76V338.621H189.25V253.551H207.84Z" fill="white"/>
<path d="M341.151 253.551V269.281H296.231V287.511H337.451V302.051H296.231V322.901H342.101V338.631H277.531V253.561H341.151V253.551Z" fill="white"/>
<path d="M394.88 269.269H352.82V253.539H419.78V268.309L374.15 322.879H420.97V338.609H349.25V323.839L394.88 269.269Z" fill="white"/>
<path d="M495.561 253.551V269.281H450.641V287.511H491.861V302.051H450.641V322.901H496.511V338.631H431.941V253.561H495.561V253.551Z" fill="white"/>
<path d="M523.441 317.65C524.471 319.64 525.841 321.24 527.551 322.48C529.261 323.71 531.261 324.62 533.571 325.22C535.871 325.81 538.261 326.11 540.721 326.11C542.391 326.11 544.181 325.97 546.081 325.69C547.981 325.41 549.771 324.88 551.441 324.08C553.111 323.29 554.501 322.19 555.611 320.8C556.721 319.41 557.281 317.64 557.281 315.5C557.281 313.2 556.541 311.33 555.081 309.9C553.611 308.47 551.681 307.28 549.301 306.33C546.921 305.38 544.221 304.54 541.201 303.83C538.181 303.12 535.121 302.32 532.031 301.45C528.851 300.66 525.751 299.68 522.741 298.53C519.721 297.38 517.021 295.89 514.641 294.06C512.261 292.23 510.331 289.95 508.861 287.21C507.391 284.47 506.661 281.16 506.661 277.26C506.661 272.89 507.591 269.1 509.461 265.88C511.331 262.66 513.771 259.98 516.791 257.84C519.811 255.7 523.221 254.11 527.041 253.07C530.851 252.04 534.661 251.52 538.481 251.52C542.931 251.52 547.201 252.02 551.291 253.01C555.381 254.01 559.011 255.61 562.191 257.84C565.371 260.07 567.891 262.9 569.761 266.36C571.621 269.81 572.561 274.01 572.561 278.93H554.451C554.291 276.39 553.751 274.28 552.841 272.62C551.931 270.95 550.711 269.64 549.211 268.69C547.701 267.74 545.971 267.06 544.031 266.66C542.081 266.26 539.961 266.07 537.661 266.07C536.151 266.07 534.641 266.23 533.131 266.55C531.621 266.87 530.251 267.42 529.021 268.22C527.791 269.02 526.771 270.01 525.981 271.2C525.181 272.39 524.791 273.9 524.791 275.73C524.791 277.4 525.111 278.75 525.741 279.78C526.381 280.81 527.631 281.77 529.491 282.64C531.351 283.51 533.941 284.39 537.231 285.26C540.521 286.13 544.831 287.25 550.161 288.6C551.751 288.92 553.951 289.49 556.771 290.33C559.591 291.16 562.391 292.5 565.171 294.32C567.951 296.15 570.351 298.59 572.381 301.65C574.411 304.71 575.421 308.62 575.421 313.39C575.421 317.28 574.661 320.9 573.161 324.23C571.651 327.57 569.411 330.44 566.431 332.87C563.451 335.29 559.761 337.18 555.351 338.53C550.941 339.88 545.841 340.56 540.041 340.56C535.351 340.56 530.811 339.98 526.401 338.83C521.991 337.68 518.101 335.87 514.721 333.41C511.341 330.95 508.661 327.81 506.681 324C504.691 320.19 503.741 315.66 503.821 310.42H521.931C521.931 313.28 522.451 315.7 523.481 317.69L523.441 317.65Z" fill="white"/>
<path d="M500.93 63.3598C502.43 60.8298 503.4 58.1598 503.84 55.3498C504.27 52.5398 504.49 49.6798 504.49 46.7498H511.61C511.45 50.6298 510.96 54.4798 510.12 58.3198C509.29 62.1598 507.8 65.7398 505.66 69.0598L519.55 85.4298H509.94L501.62 75.3498C497.89 79.7798 493.89 82.9398 489.61 84.8398C485.33 86.7398 480.34 87.6898 474.64 87.6898C470.91 87.6898 467.43 87.0798 464.18 85.8498C460.93 84.6198 458.1 82.8998 455.68 80.6898C453.26 78.4798 451.36 75.8098 449.98 72.6798C448.59 69.5598 447.9 66.0998 447.9 62.2998C447.9 59.1398 448.45 56.2098 449.56 53.5198C450.67 50.8298 452.15 48.3798 454.01 46.1598C455.87 43.9498 458.02 41.9898 460.48 40.2898C462.93 38.5898 465.54 37.1098 468.31 35.8398C466.01 33.1498 463.92 30.2498 462.02 27.1198C460.12 23.9998 459.17 20.5398 459.17 16.7398C459.17 14.0498 459.68 11.6598 460.71 9.55977C461.74 7.46977 463.12 5.69977 464.86 4.27977C466.6 2.85977 468.64 1.78977 470.97 1.07977C473.3 0.369765 475.77 0.00976562 478.39 0.00976562C481.01 0.00976562 483.41 0.449769 485.63 1.30977C487.84 2.17977 489.74 3.36977 491.33 4.86977C492.91 6.36977 494.14 8.12977 495.01 10.1498C495.88 12.1698 496.31 14.2798 496.31 16.4998C496.31 19.3498 495.85 21.8198 494.94 23.9198C494.03 26.0198 492.81 27.8798 491.26 29.4998C489.72 31.1198 487.92 32.5998 485.86 33.9498C483.8 35.2998 481.67 36.6398 479.45 37.9798L500.92 63.3698L500.93 63.3598ZM472.58 40.9398C470.21 42.0498 468.01 43.3698 466 44.9098C463.98 46.4498 462.24 48.1698 460.78 50.0698C459.32 51.9698 458.15 54.0098 457.28 56.1798C456.41 58.3598 455.98 60.5898 455.98 62.8798C455.98 65.7298 456.47 68.2798 457.46 70.5298C458.45 72.7798 459.79 74.6998 461.49 76.2798C463.19 77.8598 465.21 79.0898 467.54 79.9598C469.87 80.8298 472.42 81.2698 475.19 81.2698C479.78 81.2698 483.83 80.2198 487.35 78.1298C490.87 76.0398 494.05 73.2898 496.9 69.8798L472.58 40.9298V40.9398ZM487.76 21.3598C488.47 19.7798 488.77 18.0998 488.65 16.3198C488.53 14.5398 488.02 12.9198 487.11 11.4598C486.2 9.99977 484.95 8.78977 483.37 7.83977C481.79 6.88977 479.89 6.41977 477.67 6.41977C476.17 6.41977 474.74 6.65977 473.4 7.12977C472.05 7.59977 470.85 8.27977 469.78 9.14977C468.71 10.0198 467.86 11.0898 467.23 12.3498C466.6 13.6198 466.28 15.0398 466.28 16.6198C466.28 17.8898 466.59 19.2698 467.23 20.7698C467.86 22.2698 468.63 23.7398 469.54 25.1598C470.45 26.5798 471.42 27.9498 472.45 29.2498C473.48 30.5498 474.39 31.6798 475.18 32.6298C477.55 31.2098 479.94 29.6498 482.36 27.9398C484.77 26.2398 486.57 24.0498 487.76 21.3598Z" fill="white"/>
</svg>
