<svg width="209" height="63" viewBox="0 0 209 63" fill="none" xmlns="http://www.w3.org/2000/svg">
<path d="M2.59395 3.72074H2.59652V3.65008H84.8937V0.679688H0V62.8959H2.59395V3.72074Z" fill="white"/>
<path d="M71.2884 37.1295L76.2669 48.808L81.0732 37.1295H84.8954V35.1073L84.8517 5.86719H4.81055V62.8904L84.8954 62.8955V54.8426H79.0368V54.3608H79.6073C80.134 54.3608 80.5516 54.267 80.8612 54.0859C81.0822 53.9625 81.2543 53.7557 81.388 53.4615C81.4818 53.2495 81.5306 52.7035 81.5306 51.8131V38.6841L74.7367 54.8439H74.4219L67.5253 38.8023V51.2774C67.5253 52.1484 67.5497 52.6842 67.5895 52.8859C67.7077 53.3189 67.948 53.6735 68.327 53.9484C68.706 54.2234 69.3008 54.3621 70.1128 54.3621V54.8439H64.0526V54.3621H64.235C64.6281 54.3724 64.993 54.3081 65.3322 54.1707C65.6714 54.0383 65.927 53.8559 66.1043 53.6298C66.2765 53.4037 66.414 53.0838 66.5078 52.6752C66.5219 52.5814 66.5322 52.1395 66.5322 51.3416V40.1358C66.5322 39.2404 66.4885 38.6802 66.3896 38.4579C66.2958 38.237 66.0992 38.0404 65.8037 37.8682C65.5031 37.7012 65.1099 37.6177 64.6127 37.6177H64.0526V37.1308H71.2884V37.1295ZM45.5159 54.8439H36.2681V54.3621H36.8386C37.3653 54.3621 37.7829 54.2683 38.0925 54.0872C38.3135 53.9638 38.4856 53.757 38.6141 53.4628C38.7131 53.2508 38.7619 52.7048 38.7619 51.8144V38.6853L31.968 54.8452H31.6532L24.7566 38.8035V51.2787C24.7566 52.1497 24.781 52.6855 24.8208 52.8872C24.9339 53.3202 25.1793 53.6748 25.5583 53.9497C25.9373 54.2246 26.5322 54.3634 27.3441 54.3634V54.8452H21.2839V54.3634H21.4663C21.8594 54.3737 22.2243 54.3094 22.5635 54.172C22.9027 54.0396 23.1583 53.8572 23.3356 53.6311C23.5078 53.405 23.6453 53.085 23.7391 52.6765C23.7532 52.5827 23.7635 52.1407 23.7635 51.3429V40.1371C23.7635 39.2416 23.7146 38.6815 23.6209 38.4592C23.5271 38.2382 23.3305 38.0417 23.035 37.8695C22.7344 37.7025 22.3412 37.619 21.844 37.619H21.2826V37.1321H28.5184L33.4969 48.8106L38.3032 37.1321H45.5146V37.619H44.939C44.4123 37.619 43.9999 37.7076 43.6851 37.8901C43.4641 38.0134 43.292 38.2203 43.1635 38.5055C43.0646 38.7175 43.0157 39.2584 43.0157 40.1384V51.817C43.0157 52.7215 43.0646 53.288 43.1635 53.5142C43.2573 53.7403 43.4538 53.942 43.7493 54.109C44.0448 54.2812 44.4431 54.3647 44.9403 54.3647H45.5159V54.8465V54.8439ZM64.411 47.4102V47.892C63.7571 47.9357 63.3048 48.0243 63.0479 48.1631C62.7871 48.2954 62.5905 48.5228 62.453 48.8376C62.3747 48.9995 62.3348 49.408 62.3348 50.053V53.7326C61.2029 54.2388 60.0274 54.6178 58.803 54.8786C57.5786 55.1343 56.3093 55.2627 54.9949 55.2627C53.3132 55.2627 51.9153 55.0366 50.8092 54.5792C49.6978 54.1219 48.7188 53.5219 47.867 52.7741C47.0204 52.0315 46.3574 51.19 45.8744 50.2598C45.2641 49.0599 44.9596 47.7121 44.9596 46.2218C44.9596 43.5611 45.8988 41.3076 47.7681 39.4729C49.6426 37.6331 51.9989 36.7132 54.8369 36.7132C55.7131 36.7132 56.5097 36.7826 57.2125 36.9252C57.5966 36.9946 58.2159 37.1912 59.0715 37.5201C59.9323 37.8451 60.4385 38.007 60.5965 38.007C60.8381 38.007 61.0642 37.9183 61.2749 37.741C61.4817 37.5586 61.6732 37.2246 61.8505 36.7274H62.3323V42.9701H61.8505C61.2646 41.2626 60.3897 39.9688 59.2231 39.0785C58.0578 38.1881 56.7782 37.7449 55.3958 37.7449C54.0134 37.7449 52.9701 38.1188 52.0901 38.8614C51.21 39.6091 50.5895 40.6472 50.2207 41.9756C49.8571 43.3092 49.6747 44.6762 49.6747 46.0779C49.6747 47.7751 49.8764 49.2654 50.2747 50.5451C50.6781 51.8285 51.3231 52.769 52.2134 53.369C53.1089 53.969 54.1663 54.2696 55.3958 54.2696C55.8236 54.2696 56.2617 54.2259 56.7088 54.1321C57.1559 54.0435 57.6146 53.9112 58.0861 53.7339V50.0543C58.0861 49.3554 58.0373 48.9031 57.9435 48.7014C57.8446 48.4946 57.648 48.3134 57.3486 48.1451C57.048 47.9781 56.6844 47.8946 56.2566 47.8946H55.7992V47.4128H64.4084L64.411 47.4102Z" fill="white"/>
<path d="M94.3247 0.621094L97.9503 11.2795H97.994L101.424 0.621094H106.222V16.1206H103.03V5.13706H102.987L99.1875 16.1218H96.5615L92.7624 5.24626H92.7187V16.1218H89.5273V0.621094H94.3247Z" fill="white"/>
<path d="M116.944 0.621094L122.739 16.1206H119.201L118.029 12.6684H112.234L111.018 16.1206H107.588L113.448 0.621094H116.942H116.944ZM117.139 10.1297L115.185 4.442H115.141L113.123 10.1297H117.139Z" fill="white"/>
<path d="M120.873 3.48742V0.621094H133.573V3.48613H128.927V16.1206H125.519V3.48742H120.873Z" fill="white"/>
<path d="M135.201 5.21245C135.548 4.22189 136.048 3.35596 136.699 2.6185C137.351 1.87976 138.15 1.30161 139.098 0.88149C140.046 0.461371 141.113 0.251953 142.3 0.251953C143.487 0.251953 144.571 0.461371 145.513 0.88149C146.453 1.30161 147.25 1.87976 147.901 2.6185C148.553 3.35724 149.052 4.22189 149.399 5.21245C149.746 6.20429 149.921 7.27836 149.921 8.43594C149.921 9.59351 149.747 10.6175 149.399 11.5952C149.052 12.5716 148.553 13.4221 147.901 14.1455C147.25 14.8688 146.453 15.4366 145.513 15.8491C144.572 16.2615 143.501 16.4683 142.3 16.4683C141.098 16.4683 140.045 16.2615 139.098 15.8491C138.15 15.4366 137.351 14.8688 136.699 14.1455C136.048 13.4221 135.548 12.5716 135.201 11.5952C134.854 10.6188 134.68 9.56525 134.68 8.43594C134.68 7.30662 134.853 6.20429 135.201 5.21245ZM138.317 10.3348C138.468 10.9502 138.711 11.504 139.044 11.996C139.377 12.4881 139.811 12.8825 140.347 13.1793C140.883 13.4761 141.534 13.6238 142.301 13.6238C143.068 13.6238 143.719 13.4761 144.255 13.1793C144.791 12.8825 145.225 12.4881 145.558 11.996C145.891 11.504 146.133 10.9502 146.285 10.3348C146.437 9.71942 146.512 9.08731 146.512 8.43594C146.512 7.78456 146.437 7.09721 146.285 6.45996C146.133 5.824 145.891 5.25485 145.558 4.75636C145.225 4.25787 144.791 3.85959 144.255 3.5628C143.719 3.26602 143.068 3.11827 142.301 3.11827C141.534 3.11827 140.883 3.26731 140.347 3.5628C139.811 3.85959 139.377 4.25787 139.044 4.75636C138.711 5.25613 138.468 5.824 138.317 6.45996C138.165 7.09721 138.089 7.75501 138.089 8.43594C138.089 9.11687 138.165 9.72071 138.317 10.3348Z" fill="white"/>
<path d="M154.85 12.3011C155.037 12.6634 155.288 12.9564 155.599 13.1799C155.91 13.4048 156.276 13.5705 156.695 13.6797C157.115 13.7876 157.549 13.8429 157.997 13.8429C158.302 13.8429 158.627 13.8172 158.974 13.7671C159.321 13.717 159.647 13.618 159.95 13.4741C160.255 13.329 160.508 13.1311 160.709 12.8767C160.912 12.6236 161.014 12.3011 161.014 11.9106C161.014 11.4904 160.88 11.15 160.612 10.8905C160.343 10.6297 159.993 10.4125 159.558 10.2391C159.124 10.0656 158.632 9.91404 158.082 9.78299C157.532 9.65323 156.975 9.50805 156.411 9.34874C155.831 9.20356 155.267 9.02755 154.717 8.81684C154.167 8.60743 153.675 8.33634 153.241 8.0023C152.807 7.66955 152.456 7.25328 152.189 6.7535C151.92 6.25501 151.787 5.64989 151.787 4.94069C151.787 4.14542 151.956 3.45422 152.297 2.86708C152.637 2.28122 153.082 1.79301 153.632 1.40115C154.182 1.01058 154.803 0.721511 155.498 0.532649C156.193 0.345073 156.887 0.25 157.582 0.25C158.393 0.25 159.17 0.339934 159.915 0.521086C160.661 0.702239 161.322 0.995167 161.902 1.39987C162.48 1.80586 162.94 2.32233 163.28 2.95187C163.619 3.58141 163.79 4.34456 163.79 5.24262H160.491C160.461 4.7801 160.364 4.39595 160.198 4.09275C160.031 3.78826 159.811 3.54929 159.536 3.37584C159.261 3.2024 158.947 3.07906 158.592 3.00712C158.238 2.93517 157.851 2.8992 157.431 2.8992C157.156 2.8992 156.881 2.92875 156.606 2.98656C156.331 3.04437 156.082 3.14587 155.857 3.29105C155.632 3.43623 155.448 3.6161 155.303 3.83322C155.158 4.05035 155.086 4.32529 155.086 4.65805C155.086 4.96254 155.144 5.20793 155.259 5.3955C155.375 5.58436 155.602 5.75781 155.943 5.91712C156.282 6.07643 156.754 6.23574 157.354 6.39505C157.954 6.55437 158.74 6.75736 159.709 7.00275C159.998 7.06056 160.4 7.16592 160.914 7.31752C161.428 7.46912 161.938 7.71194 162.444 8.0447C162.95 8.37745 163.388 8.82327 163.757 9.37957C164.126 9.93716 164.311 10.6502 164.311 11.5187C164.311 12.2279 164.173 12.887 163.898 13.4947C163.623 14.1024 163.215 14.6266 162.671 15.0685C162.129 15.5105 161.456 15.8535 160.653 16.1002C159.85 16.3469 158.92 16.4689 157.864 16.4689C157.009 16.4689 156.181 16.3636 155.378 16.1542C154.575 15.9447 153.865 15.6146 153.25 15.1662C152.635 14.7178 152.146 14.1461 151.784 13.451C151.422 12.7559 151.248 11.9311 151.263 10.9765H154.562C154.562 11.4982 154.656 11.9388 154.844 12.3011H154.85Z" fill="white"/>
<path d="M98.709 38.916C97.9715 39.2269 97.2251 39.3824 96.4735 39.3824C95.2864 39.3824 94.2187 39.1755 93.2718 38.7631C92.3237 38.3507 91.5245 37.7828 90.8732 37.0595C90.2218 36.3362 89.722 35.4857 89.3751 34.5092C89.0282 33.5328 88.8535 32.4793 88.8535 31.35C88.8535 30.2207 89.027 29.1184 89.3751 28.1265C89.722 27.136 90.2218 26.27 90.8732 25.5326C91.5245 24.7938 92.3237 24.2157 93.2718 23.7956C94.22 23.3754 95.2864 23.166 96.4735 23.166C97.2688 23.166 98.0396 23.2855 98.7861 23.5245C99.5312 23.7634 100.204 24.1142 100.804 24.578C101.404 25.0418 101.9 25.6135 102.291 26.2931C102.681 26.9741 102.92 27.7552 103.008 28.6378H99.7509C99.5479 27.7693 99.1574 27.118 98.5792 26.6837C97.9998 26.2495 97.2983 26.0323 96.4735 26.0323C95.7065 26.0323 95.0551 26.1814 94.5193 26.4769C93.9836 26.7736 93.5494 27.1719 93.2166 27.6704C92.8838 28.1702 92.641 28.7381 92.4894 29.374C92.3378 30.0113 92.262 30.6691 92.262 31.35C92.262 32.0309 92.3378 32.6348 92.4894 33.2489C92.641 33.8643 92.8838 34.418 93.2166 34.9101C93.5494 35.4022 93.9836 35.7966 94.5193 36.0934C95.0551 36.3902 95.7065 36.5379 96.4735 36.5379C97.6028 36.5379 98.4739 36.2527 99.0893 35.681C99.7047 35.1092 100.062 34.2806 100.163 33.1949H96.733V30.6549H103.246V39.0342H101.074L100.727 37.2754C100.12 38.0565 99.4464 38.6038 98.709 38.9147V38.916Z" fill="white"/>
<path d="M113.733 23.5371L119.528 39.0366H115.99L114.818 35.5844H109.023L107.807 39.0366H104.377L110.238 23.5371H113.733ZM113.928 33.0457L111.974 27.358H111.93L109.912 33.0457H113.928Z" fill="white"/>
<path d="M125.67 23.5371L129.296 34.1956H129.34L132.77 23.5371H137.567V39.0366H134.376V28.0518H134.332L130.533 39.0366H127.907L124.108 28.161H124.064V39.0366H120.873V23.5371H125.67Z" fill="white"/>
<path d="M147.857 23.5371C148.595 23.5371 149.268 23.6026 149.876 23.7324C150.483 23.8622 151.005 24.0767 151.439 24.3722C151.874 24.669 152.21 25.0634 152.449 25.5555C152.688 26.0476 152.808 26.6552 152.808 27.3786C152.808 28.1597 152.63 28.8111 152.276 29.3327C151.921 29.853 151.397 30.2809 150.702 30.6136C151.656 30.8886 152.37 31.3704 152.84 32.0564C153.31 32.7438 153.545 33.5724 153.545 34.5424C153.545 35.3236 153.393 36.0007 153.089 36.5724C152.785 37.1441 152.376 37.6105 151.862 37.9728C151.348 38.3351 150.762 38.6023 150.103 38.7758C149.444 38.9492 148.768 39.0366 148.073 39.0366H140.562V23.5371H147.856H147.857ZM147.423 29.8106C148.031 29.8106 148.531 29.6655 148.921 29.3764C149.312 29.0873 149.507 28.6171 149.507 27.9657C149.507 27.6047 149.442 27.3079 149.312 27.0754C149.182 26.8441 149.007 26.663 148.79 26.5332C148.573 26.4021 148.324 26.3122 148.041 26.2621C147.758 26.212 147.466 26.1863 147.162 26.1863H143.971V29.8119H147.423V29.8106ZM147.618 36.3887C147.951 36.3887 148.27 36.3565 148.573 36.291C148.878 36.2255 149.145 36.1176 149.376 35.966C149.607 35.8144 149.792 35.6075 149.93 35.3467C150.067 35.0859 150.137 34.7532 150.137 34.3484C150.137 33.5532 149.912 32.984 149.463 32.6448C149.015 32.3057 148.421 32.1348 147.684 32.1348H143.972V36.3899H147.62L147.618 36.3887Z" fill="white"/>
<path d="M155.693 28.1265C156.04 27.136 156.54 26.27 157.192 25.5326C157.843 24.7938 158.642 24.2157 159.59 23.7956C160.538 23.3754 161.605 23.166 162.792 23.166C163.979 23.166 165.063 23.3754 166.005 23.7956C166.945 24.2157 167.742 24.7938 168.393 25.5326C169.045 26.2713 169.545 27.136 169.891 28.1265C170.238 29.1184 170.413 30.1924 170.413 31.35C170.413 32.5076 170.24 33.5315 169.891 34.5092C169.545 35.4857 169.045 36.3362 168.393 37.0595C167.742 37.7828 166.945 38.3507 166.005 38.7631C165.065 39.1755 163.993 39.3824 162.792 39.3824C161.591 39.3824 160.537 39.1755 159.59 38.7631C158.642 38.3507 157.843 37.7828 157.192 37.0595C156.54 36.3362 156.04 35.4857 155.693 34.5092C155.347 33.5328 155.172 32.4793 155.172 31.35C155.172 30.2207 155.345 29.1184 155.693 28.1265ZM158.809 33.2502C158.961 33.8656 159.203 34.4193 159.536 34.9114C159.869 35.4034 160.303 35.7979 160.839 36.0947C161.375 36.3914 162.026 36.5392 162.793 36.5392C163.56 36.5392 164.212 36.3914 164.747 36.0947C165.283 35.7979 165.717 35.4034 166.05 34.9114C166.383 34.4193 166.626 33.8656 166.777 33.2502C166.929 32.6348 167.005 32.0027 167.005 31.3513C167.005 30.6999 166.929 30.0126 166.777 29.3753C166.626 28.7393 166.383 28.1702 166.05 27.6717C165.717 27.1732 165.283 26.7749 164.747 26.4782C164.212 26.1814 163.56 26.0336 162.793 26.0336C162.026 26.0336 161.375 26.1827 160.839 26.4782C160.303 26.7749 159.869 27.1732 159.536 27.6717C159.203 28.1715 158.961 28.7393 158.809 29.3753C158.657 30.0126 158.582 30.6704 158.582 31.3513C158.582 32.0322 158.657 32.6361 158.809 33.2502Z" fill="white"/>
<path d="M181.092 23.5371C181.787 23.5371 182.413 23.6502 182.97 23.8737C183.526 24.0986 184.004 24.4056 184.403 24.7962C184.801 25.1868 185.104 25.639 185.315 26.1529C185.524 26.6668 185.63 27.2205 185.63 27.8141C185.63 28.7263 185.438 29.5151 185.054 30.1807C184.67 30.8462 184.044 31.3524 183.176 31.7005V31.7442C183.596 31.8598 183.943 32.0371 184.218 32.2761C184.493 32.5151 184.717 32.7964 184.891 33.1228C185.064 33.4478 185.192 33.8063 185.271 34.1968C185.351 34.5874 185.405 34.978 185.434 35.3686C185.448 35.6152 185.463 35.9043 185.478 36.2371C185.492 36.5698 185.518 36.9103 185.554 37.2572C185.59 37.6041 185.648 37.9342 185.727 38.2452C185.807 38.5561 185.926 38.8207 186.086 39.0379H182.677C182.49 38.5458 182.373 37.9599 182.33 37.279C182.287 36.5994 182.222 35.948 182.135 35.3249C182.019 34.5142 181.773 33.9219 181.396 33.5442C181.02 33.1677 180.404 32.9802 179.551 32.9802H176.143V39.0366H172.734V23.5371H181.092ZM179.875 30.5481C180.656 30.5481 181.243 30.3747 181.634 30.0278C182.025 29.6809 182.22 29.1156 182.22 28.3344C182.22 27.5533 182.025 27.0355 181.634 26.6951C181.243 26.3546 180.658 26.185 179.875 26.185H176.142V30.5481H179.875Z" fill="white"/>
<path d="M197.592 38.916C196.854 39.2269 196.108 39.3824 195.356 39.3824C194.169 39.3824 193.102 39.1755 192.155 38.7631C191.206 38.3507 190.407 37.7828 189.756 37.0595C189.105 36.3362 188.605 35.4857 188.258 34.5092C187.911 33.5328 187.736 32.4793 187.736 31.35C187.736 30.2207 187.91 29.1184 188.258 28.1265C188.605 27.136 189.105 26.27 189.756 25.5326C190.407 24.7938 191.206 24.2157 192.155 23.7956C193.103 23.3754 194.169 23.166 195.356 23.166C196.152 23.166 196.922 23.2855 197.669 23.5245C198.414 23.7634 199.087 24.1142 199.687 24.578C200.287 25.0418 200.783 25.6135 201.174 26.2931C201.564 26.9741 201.803 27.7552 201.891 28.6378H198.634C198.431 27.7693 198.04 27.118 197.462 26.6837C196.883 26.2495 196.181 26.0323 195.356 26.0323C194.589 26.0323 193.938 26.1814 193.402 26.4769C192.866 26.7736 192.432 27.1719 192.099 27.6704C191.767 28.1702 191.524 28.7381 191.372 29.374C191.221 30.0113 191.145 30.6691 191.145 31.35C191.145 32.0309 191.221 32.6348 191.372 33.2489C191.524 33.8643 191.767 34.418 192.099 34.9101C192.432 35.4022 192.866 35.7966 193.402 36.0934C193.938 36.3902 194.589 36.5379 195.356 36.5379C196.486 36.5379 197.357 36.2527 197.972 35.681C198.587 35.1092 198.945 34.2806 199.046 33.1949H195.616V30.6549H202.128V39.0342H199.957L199.61 37.2754C199.002 38.0565 198.329 38.6038 197.592 38.9147V38.916Z" fill="white"/>
<path d="M208.293 23.5371V39.0366H204.885V23.5371H208.293Z" fill="white"/>
<path d="M94.3247 46.4512L97.9503 57.1096H97.994L101.424 46.4512H106.222V61.9506H103.03V50.9659H102.987L99.1875 61.9506H96.5615L92.7624 51.0751H92.7187V61.9506H89.5273V46.4512H94.3247Z" fill="white"/>
<path d="M120.809 46.4505V49.3155H112.625V52.6367H120.136V55.2846H112.625V59.0836H120.983V61.9487H109.217V46.4492H120.809V46.4505Z" fill="white"/>
<path d="M126.67 46.4512L133.139 56.8501H133.182V46.4512H136.374V61.9506H132.965L126.518 51.5736H126.475V61.9506H123.283V46.4512H126.67Z" fill="white"/>
<path d="M150.962 46.4505V49.3155H142.778V52.6367H150.288V55.2846H142.778V59.0836H151.135V61.9487H139.369V46.4492H150.962V46.4505Z" fill="white"/>
<path d="M160.751 49.3182H153.087V46.4531H165.287V49.1447L156.973 59.0876H165.504V61.9526H152.436V59.261L160.751 49.3182Z" fill="white"/>
<path d="M179.094 46.4505V49.3155H170.91V52.6367H178.421V55.2846H170.91V59.0836H179.268V61.9487H167.502V46.4492H179.094V46.4505Z" fill="white"/>
<path d="M184.176 58.1312C184.363 58.4935 184.614 58.7864 184.925 59.01C185.236 59.2348 185.602 59.4006 186.021 59.5098C186.441 59.6177 186.875 59.6729 187.323 59.6729C187.628 59.6729 187.953 59.6472 188.3 59.5971C188.647 59.547 188.973 59.4481 189.276 59.3042C189.581 59.159 189.834 58.9612 190.036 58.7068C190.239 58.4537 190.34 58.1312 190.34 57.7406C190.34 57.3205 190.206 56.9801 189.938 56.7205C189.669 56.4597 189.319 56.2426 188.884 56.0692C188.45 55.8957 187.958 55.7441 187.408 55.6131C186.858 55.4833 186.301 55.3381 185.737 55.1788C185.157 55.0336 184.593 54.8576 184.043 54.6469C183.494 54.4375 183.001 54.1664 182.567 53.8324C182.133 53.4996 181.782 53.0834 181.515 52.5836C181.247 52.0851 181.113 51.48 181.113 50.7708C181.113 49.9755 181.282 49.2843 181.623 48.6972C181.963 48.1113 182.408 47.6231 182.958 47.2312C183.508 46.8407 184.13 46.5516 184.825 46.3627C185.52 46.1752 186.213 46.0801 186.908 46.0801C187.719 46.0801 188.496 46.17 189.242 46.3512C189.987 46.5323 190.648 46.8252 191.228 47.2299C191.806 47.6359 192.266 48.1524 192.606 48.7819C192.946 49.4115 193.116 50.1746 193.116 51.0727H189.817C189.788 50.6102 189.69 50.226 189.524 49.9228C189.357 49.6183 189.138 49.3794 188.863 49.2059C188.588 49.0325 188.273 48.9091 187.918 48.8372C187.564 48.7652 187.177 48.7293 186.757 48.7293C186.482 48.7293 186.207 48.7588 185.932 48.8166C185.657 48.8745 185.408 48.9759 185.183 49.1211C184.958 49.2663 184.774 49.4462 184.629 49.6633C184.484 49.8804 184.412 50.1554 184.412 50.4881C184.412 50.7926 184.47 51.038 184.586 51.2256C184.701 51.4144 184.929 51.5879 185.269 51.7472C185.608 51.9065 186.08 52.0658 186.68 52.2251C187.28 52.3844 188.066 52.5874 189.035 52.8328C189.324 52.8906 189.726 52.996 190.24 53.1476C190.754 53.2992 191.264 53.542 191.77 53.8748C192.276 54.2075 192.714 54.6533 193.083 55.2097C193.452 55.7672 193.637 56.4803 193.637 57.3488C193.637 58.058 193.499 58.7171 193.224 59.3248C192.949 59.9325 192.541 60.4566 191.997 60.8986C191.455 61.3406 190.782 61.6836 189.979 61.9303C189.176 62.177 188.246 62.299 187.19 62.299C186.335 62.299 185.507 62.1937 184.704 61.9842C183.901 61.7748 183.192 61.4446 182.576 60.9963C181.961 60.5479 181.473 59.9761 181.11 59.2811C180.748 58.586 180.575 57.7612 180.589 56.8066H183.888C183.888 57.3282 183.982 57.7689 184.171 58.1312H184.176Z" fill="white"/>
<path d="M179.867 11.9234C180.139 11.4648 180.314 10.9817 180.393 10.4729C180.472 9.96417 180.512 9.44512 180.512 8.91451H181.802C181.772 9.616 181.683 10.3149 181.532 11.01C181.381 11.705 181.112 12.3526 180.725 12.9551L183.24 15.9204H181.5L179.993 14.0934C179.318 14.8964 178.592 15.4681 177.817 15.8124C177.043 16.1568 176.138 16.3276 175.105 16.3276C174.431 16.3276 173.799 16.2159 173.21 15.9949C172.622 15.7726 172.109 15.4617 171.671 15.0596C171.233 14.6587 170.889 14.1756 170.638 13.6091C170.386 13.0438 170.262 12.4168 170.262 11.7282C170.262 11.1552 170.362 10.6258 170.562 10.1376C170.763 9.65069 171.031 9.20616 171.368 8.80531C171.705 8.40446 172.095 8.04986 172.54 7.74152C172.983 7.43318 173.456 7.16466 173.958 6.93597C173.542 6.44904 173.163 5.92229 172.818 5.35699C172.474 4.79169 172.303 4.16472 172.303 3.47608C172.303 2.98916 172.396 2.55619 172.582 2.1759C172.768 1.79689 173.019 1.47698 173.334 1.22003C173.648 0.96179 174.017 0.769074 174.44 0.639313C174.862 0.510836 175.31 0.445312 175.782 0.445312C176.255 0.445312 176.692 0.523683 177.093 0.68171C177.494 0.839737 177.838 1.05429 178.125 1.32666C178.411 1.59904 178.633 1.91766 178.791 2.28253C178.948 2.64741 179.028 3.03155 179.028 3.4324C179.028 3.94759 178.945 4.39598 178.781 4.77499C178.617 5.15528 178.394 5.49189 178.114 5.78482C177.835 6.07903 177.509 6.34755 177.137 6.59037C176.764 6.83447 176.377 7.07729 175.976 7.3214L179.865 11.9196L179.867 11.9234ZM174.731 7.861C174.302 8.06143 173.904 8.30168 173.539 8.58047C173.174 8.85927 172.858 9.17147 172.594 9.51579C172.329 9.86011 172.117 10.2288 171.96 10.622C171.802 11.0164 171.724 11.4211 171.724 11.8361C171.724 12.3513 171.814 12.8138 171.992 13.2223C172.171 13.6309 172.415 13.9778 172.723 14.2643C173.032 14.5508 173.397 14.7731 173.819 14.9311C174.242 15.0891 174.703 15.1675 175.206 15.1675C176.035 15.1675 176.77 14.9773 177.408 14.5983C178.045 14.2193 178.622 13.7208 179.138 13.1054L174.733 7.86229L174.731 7.861ZM177.482 4.31632C177.611 4.02982 177.665 3.72533 177.643 3.40285C177.621 3.08038 177.528 2.78745 177.364 2.5215C177.199 2.25684 176.973 2.03843 176.687 1.86627C176.4 1.69411 176.056 1.60803 175.655 1.60803C175.383 1.60803 175.125 1.65043 174.882 1.73651C174.638 1.82259 174.419 1.94464 174.227 2.10138C174.033 2.25941 173.88 2.45212 173.764 2.6821C173.65 2.91207 173.592 3.16902 173.592 3.45553C173.592 3.6855 173.648 3.93603 173.764 4.20712C173.878 4.47949 174.018 4.74415 174.183 5.00239C174.347 5.26063 174.523 5.50731 174.71 5.7437C174.896 5.9801 175.06 6.18438 175.204 6.35654C175.633 6.0983 176.066 5.81565 176.504 5.50731C176.941 5.19896 177.268 4.80197 177.482 4.31504V4.31632Z" fill="white"/>
</svg>
